<?xml version="1.0" standalone="no"?>
<!DOCTYPE svg PUBLIC "-//W3C//DTD SVG 20010904//EN"
 "http://www.w3.org/TR/2001/REC-SVG-20010904/DTD/svg10.dtd">
<svg version="1.0" xmlns="http://www.w3.org/2000/svg"
 width="300.000000pt" height="200.000000pt" viewBox="0 0 300.000000 200.000000"
 preserveAspectRatio="xMidYMid meet">
<metadata>
Created by potrace 1.10, written by Peter Selinger 2001-2011
</metadata>
<g transform="translate(0.000000,200.000000) scale(0.100000,-0.100000)"
fill="#000000" stroke="none">
<path d="M2665 1908 c2 -51 7 -219 10 -373 5 -260 26 -754 40 -940 25 -331 53
-575 68 -590 6 -7 7 5 3 35 -13 103 -46 510 -56 705 -5 116 -12 242 -15 280
-2 39 -7 149 -10 245 -4 96 -8 207 -10 245 -2 39 -4 163 -5 278 -1 174 -4 207
-16 207 -12 0 -14 -16 -9 -92z"/>
<path d="M1924 1767 c-16 -13 -38 -26 -49 -28 -12 -2 -29 -22 -41 -48 -20 -41
-20 -47 -7 -109 21 -103 33 -96 13 8 -6 30 -6 58 -1 64 4 6 11 23 14 37 5 20
15 28 38 33 18 3 38 15 46 26 14 20 43 27 56 13 4 -3 28 -7 55 -8 54 -2 96
-20 89 -39 -3 -7 4 -26 15 -42 19 -28 19 -28 12 -4 -21 75 -42 95 -109 104
-22 2 -54 8 -71 11 -24 5 -37 1 -60 -18z"/>
<path d="M1287 1705 c-22 -7 -50 -23 -63 -36 -56 -53 -109 -217 -105 -322 1
-28 -2 -38 -11 -35 -7 3 -13 17 -13 31 1 30 -10 36 -19 11 -4 -9 1 -27 9 -40
9 -13 11 -24 5 -24 -25 0 -50 -20 -50 -40 0 -7 14 0 31 14 41 35 73 34 96 -4
19 -33 32 -39 29 -14 0 9 5 18 12 20 7 1 8 0 3 -2 -5 -3 -7 -14 -4 -25 4 -13
11 -18 23 -14 10 3 21 1 25 -4 4 -7 -1 -8 -11 -4 -12 4 -15 3 -10 -6 5 -7 15
-10 23 -7 18 7 45 -12 37 -25 -3 -5 6 -5 19 0 14 6 28 7 32 3 9 -9 25 19 25
46 0 14 4 21 11 17 7 -5 8 5 4 29 -5 23 -3 36 3 36 6 0 9 -9 7 -20 -2 -11 0
-22 6 -25 5 -4 9 3 9 14 0 28 -11 52 -21 45 -5 -3 -9 -1 -9 4 0 5 11 14 24 21
13 8 29 23 34 35 10 19 11 19 11 -10 1 -31 31 -73 31 -44 0 8 3 10 7 6 5 -4
-1 -14 -11 -22 -15 -10 -20 -29 -22 -85 -3 -50 -9 -78 -20 -91 -20 -21 -30
-23 -32 -5 -11 84 -29 112 -23 35 2 -30 -22 -40 -33 -13 -3 8 -11 15 -18 15
-10 0 -9 -3 1 -9 8 -5 11 -16 7 -26 -7 -18 -21 -12 -21 8 0 14 -48 10 -53 -4
-2 -5 -8 -7 -13 -3 -16 9 -10 -67 6 -83 9 -8 13 -18 10 -22 -10 -10 -35 30
-36 58 -1 16 -5 9 -10 -19 -5 -25 -7 -49 -5 -55 3 -5 5 1 5 14 1 19 4 22 13
13 9 -9 7 -19 -10 -42 -13 -16 -22 -44 -22 -63 0 -51 -12 -101 -20 -87 -4 7
-41 20 -81 31 -41 10 -85 21 -99 25 -14 4 -22 3 -18 -1 10 -11 -10 -35 -30
-35 -11 0 -13 8 -9 35 3 21 2 33 -4 30 -5 -4 -9 10 -8 32 0 29 2 33 8 18 7
-16 9 -13 13 17 2 21 0 45 -5 53 -13 25 2 73 36 113 25 28 27 34 12 28 -44
-18 -56 -17 -114 14 -33 18 -66 30 -73 27 -7 -2 -21 3 -32 12 -18 15 -18 15
-12 -6 5 -15 3 -23 -4 -23 -6 0 -9 -4 -6 -8 6 -10 -30 -43 -38 -35 -3 4 -6 21
-6 38 0 24 6 35 25 43 25 12 34 32 14 32 -5 0 -7 -5 -3 -12 4 -7 3 -8 -4 -4
-7 4 -12 2 -12 -3 0 -6 -4 -11 -10 -11 -17 0 -11 19 9 30 24 12 48 4 56 -20 3
-11 15 -17 31 -17 15 0 29 -4 33 -9 13 -18 85 -46 89 -34 3 8 8 7 20 -2 11
-10 16 -10 19 -1 2 7 10 10 18 7 7 -3 17 0 21 8 11 17 13 48 2 42 -4 -3 -8
-14 -8 -25 0 -19 -14 -26 -23 -11 -7 11 31 54 42 48 5 -3 12 1 15 10 8 22 8
26 -4 19 -5 -3 -10 1 -10 9 0 9 -5 16 -11 16 -5 0 -8 -4 -5 -8 8 -13 -26 -37
-50 -36 -12 1 -34 5 -50 10 -32 9 -43 11 -62 13 -7 0 -11 5 -8 10 7 11 -43 33
-57 24 -21 -13 -37 -12 -37 4 0 10 6 14 20 10 11 -3 20 -1 20 5 0 5 5 6 10 3
6 -3 10 1 10 10 0 12 9 9 38 -14 48 -39 117 -55 146 -35 26 18 28 18 55 -7 21
-20 23 -20 19 -3 -2 10 -14 24 -26 30 -15 7 -20 14 -13 18 6 4 11 16 11 27 0
11 16 61 36 112 19 50 33 101 30 112 -8 27 -101 86 -147 92 -50 7 -139 -22
-177 -57 -29 -26 -30 -30 -19 -61 7 -19 18 -38 25 -42 6 -4 12 -16 12 -25 0
-10 5 -23 11 -29 7 -7 9 -19 5 -28 -9 -24 -33 -3 -41 36 -4 16 -10 27 -15 24
-13 -8 10 -65 31 -78 22 -13 25 -52 7 -64 -7 -4 -22 -8 -33 -8 -13 0 -22 -8
-25 -25 -10 -48 -36 -70 -115 -98 -61 -21 -85 -35 -108 -64 -40 -49 -73 -183
-92 -370 -8 -80 -20 -179 -26 -220 -7 -40 -11 -131 -10 -203 1 -72 2 -190 3
-262 1 -73 6 -133 10 -133 4 0 8 5 8 12 0 9 3 9 12 0 7 -7 18 -12 25 -12 8 0
5 14 -12 44 -13 24 -22 45 -20 48 3 2 1 18 -4 36 -9 30 -8 32 32 51 58 27 107
17 119 -24 16 -54 15 -96 -1 -93 -14 3 -30 47 -34 91 -1 9 -5 17 -9 17 -13 0
-8 -61 7 -105 17 -48 18 -55 5 -55 -14 0 -53 87 -47 104 3 8 -1 17 -9 20 -9 3
-12 10 -9 16 3 5 1 10 -5 10 -8 0 -9 -7 -5 -18 4 -9 11 -31 15 -48 18 -76 70
-121 85 -74 4 11 11 17 17 14 6 -4 8 -2 4 4 -3 6 -2 13 4 17 28 18 -2 148 -37
157 -24 6 -73 4 -99 -5 -20 -7 -22 -3 -28 49 -4 31 -4 59 -2 61 2 3 22 11 43
19 34 13 35 14 8 11 -16 -2 -37 -6 -45 -8 -10 -3 -15 3 -15 16 0 15 8 21 30
23 17 2 33 7 37 11 5 4 -7 5 -26 3 -28 -3 -35 0 -41 17 -3 11 -3 26 1 33 4 6
8 28 8 47 1 33 4 37 36 42 l35 6 -35 2 -35 1 3 46 c3 28 10 48 19 51 10 4 11
8 3 13 -7 5 -9 20 -5 43 5 24 11 34 19 30 7 -5 7 -2 -1 8 -9 11 -10 36 -3 100
33 299 66 373 174 395 11 2 24 8 30 14 5 5 19 10 29 10 15 0 18 -5 13 -24 -4
-15 0 -32 12 -45 l17 -21 30 28 c40 38 69 44 94 21 11 -10 26 -20 33 -21 17
-4 32 -19 45 -43 10 -20 7 -48 -5 -41 -12 7 -17 -81 -8 -144 11 -79 15 -92 32
-105 14 -10 20 -9 36 7 20 20 63 24 73 7 4 -6 14 -8 22 -5 8 4 34 -2 58 -13
l42 -19 -9 -58 c-9 -57 -6 -87 23 -202 4 -18 6 -41 4 -52 -2 -10 3 -21 11 -24
11 -4 13 0 9 17 -13 53 -37 173 -37 187 -1 35 14 127 24 158 12 32 17 35 53
33 20 -1 20 -1 0 8 -11 4 -26 6 -32 4 -7 -3 -13 -1 -13 5 0 13 25 22 61 22 16
0 29 5 29 11 0 7 -16 8 -45 3 -56 -8 -61 10 -10 45 19 13 37 32 40 42 4 10 14
19 23 19 13 0 13 2 -4 14 -10 8 -16 18 -12 22 10 9 38 -15 38 -32 0 -8 5 -14
10 -14 6 0 10 -4 10 -10 0 -5 -13 -10 -30 -10 -16 0 -30 -4 -30 -8 0 -5 -17
-21 -37 -36 -31 -22 -33 -26 -13 -20 14 4 30 13 36 21 13 19 99 30 109 14 9
-15 14 -87 8 -112 -3 -10 -10 -19 -15 -19 -6 0 -8 7 -5 15 4 8 2 17 -3 20 -4
3 -11 -14 -15 -37 -9 -50 -39 -114 -57 -120 -7 -3 -2 -7 10 -10 17 -5 22 -2
22 13 0 10 8 27 18 37 9 9 19 29 20 42 4 28 9 36 18 28 3 -4 1 -15 -5 -26 -8
-15 -8 -21 1 -24 8 -3 8 -10 -1 -26 -9 -17 -9 -21 1 -17 18 7 40 -65 26 -83
-8 -9 -14 -9 -24 -1 -11 9 -14 8 -14 -1 0 -8 -3 -10 -7 -6 -4 4 -6 22 -5 41 2
18 -2 36 -8 40 -6 3 -10 3 -9 -2 5 -29 -3 -83 -12 -83 -7 0 -9 10 -7 25 3 14
1 25 -3 25 -5 0 -9 -9 -9 -19 0 -12 -12 -26 -27 -33 -21 -10 -27 -20 -25 -38
3 -29 38 -66 45 -47 3 9 8 9 21 -2 14 -12 16 -12 11 1 -4 9 0 15 10 15 12 0
15 -15 15 -83 0 -46 3 -85 8 -87 4 -3 5 31 4 74 -4 88 3 124 18 99 6 -8 10
-10 10 -5 0 6 8 11 18 11 9 1 26 5 36 9 18 8 19 5 12 -56 -7 -74 -23 -176 -36
-234 -6 -26 -5 -41 1 -44 6 -2 0 -14 -12 -27 -20 -22 -22 -29 -13 -62 8 -31 7
-43 -8 -67 l-19 -30 7 28 c5 23 3 27 -14 27 -19 0 -20 -2 -7 -27 12 -23 12
-29 0 -43 -9 -10 -11 -20 -5 -30 8 -13 10 -13 10 1 0 9 14 33 30 54 31 39 36
67 21 108 -8 19 -6 27 5 31 8 3 14 -1 14 -9 0 -8 10 -17 23 -20 49 -11 195
-27 242 -26 56 1 90 -13 66 -28 -7 -5 -11 -13 -7 -19 4 -6 -18 -14 -56 -20
l-63 -9 58 -2 c60 -1 74 -15 32 -31 -29 -11 -34 -20 -6 -13 14 3 20 -2 24 -26
9 -45 34 -39 42 10 9 50 0 64 -9 14 -4 -19 -11 -35 -15 -35 -15 0 8 91 39 157
16 34 30 69 30 76 0 7 4 17 9 22 5 6 28 87 51 180 36 144 41 180 36 235 -3 36
-1 71 4 79 8 14 79 41 108 41 8 0 11 -7 8 -17 -2 -10 -7 -49 -10 -88 l-5 -70
13 82 c13 87 18 99 35 88 12 -7 16 -157 5 -168 -4 -3 -8 -24 -9 -45 -2 -22
-10 -53 -18 -69 -9 -16 -30 -87 -48 -158 -18 -72 -37 -136 -43 -144 -6 -7 -9
-37 -8 -67 l2 -53 -63 24 c-34 13 -71 27 -81 31 -11 4 -17 4 -14 -2 4 -5 36
-20 73 -34 l67 -25 -5 -47 c-3 -36 -1 -48 9 -48 9 0 14 12 14 35 0 44 29 93
53 89 12 -1 37 17 66 47 52 55 71 61 71 23 0 -17 -4 -23 -12 -19 -7 4 -4 -1 6
-9 11 -9 25 -16 32 -16 7 0 15 -4 18 -8 3 -5 -21 -8 -54 -6 -44 2 -60 -1 -64
-12 -7 -17 15 -19 32 -2 9 9 12 9 12 -2 0 -13 1 -13 9 -1 8 13 16 13 56 0 51
-15 59 -30 23 -41 -23 -6 -23 -6 2 -8 23 -1 23 -2 5 -10 -11 -5 -36 -9 -55
-10 -32 -2 -31 -3 14 -11 44 -7 56 -4 109 22 32 17 57 33 54 36 -3 3 -12 1
-19 -3 -7 -5 -22 -9 -33 -9 -11 0 -19 -6 -17 -12 2 -15 -7 -16 -27 -4 -11 7
-8 11 10 17 13 5 29 9 34 9 15 1 85 45 84 53 -3 21 3 22 22 1 l20 -24 -11 23
c-6 13 -8 36 -5 53 5 24 4 28 -9 23 -9 -3 -14 -10 -11 -14 8 -12 -35 -61 -47
-54 -6 4 -8 2 -5 -3 6 -9 -20 -27 -32 -23 -2 1 -7 -4 -11 -10 -11 -18 -42 -4
-84 39 -38 39 -39 41 -26 73 15 37 55 90 63 82 12 -12 101 279 104 341 4 77 4
81 -3 237 -4 105 -2 158 7 185 20 61 14 105 -18 131 -29 24 -80 52 -94 52 -5
0 -6 -7 -3 -15 4 -8 11 -15 18 -15 6 0 28 -11 49 -25 41 -28 47 -57 26 -125
-13 -44 -13 -248 0 -315 6 -31 6 -56 0 -67 -5 -10 -9 -33 -8 -50 1 -18 -5 -55
-14 -83 -9 -27 -25 -84 -37 -125 -27 -94 -31 -102 -61 -117 -23 -12 -155 -11
-167 1 -6 7 36 172 52 205 8 14 17 67 21 116 4 50 12 98 17 109 8 14 7 17 -2
11 -10 -6 -11 1 -7 26 6 43 -12 286 -24 313 -7 16 -8 13 -4 -14 2 -19 7 -82
10 -139 4 -57 9 -109 11 -116 3 -7 -7 -11 -31 -11 -19 1 -35 5 -35 10 0 4 -16
5 -36 1 -26 -4 -40 -2 -46 7 -8 10 -9 9 -5 -4 3 -9 -2 -23 -12 -32 -17 -16
-19 -16 -26 1 -5 10 -12 41 -16 68 l-7 50 3 -55 c3 -30 4 -62 4 -70 0 -8 0
-34 1 -57 0 -28 -4 -43 -12 -43 -9 -1 -8 -4 2 -10 17 -9 18 -39 6 -127 -5 -29
-12 -53 -17 -53 -5 0 -9 -12 -9 -26 0 -14 -4 -23 -8 -20 -5 3 -7 -8 -4 -23 2
-16 -1 -32 -7 -35 -6 -4 -11 -18 -11 -31 0 -13 -4 -26 -9 -29 -8 -5 -15 -31
-24 -88 -4 -21 -17 -36 -17 -19 0 7 -5 9 -11 5 -8 -4 -8 -9 0 -17 6 -6 11 -16
11 -22 0 -14 -114 -9 -255 9 l-90 12 -3 32 c-2 18 3 55 11 82 11 36 11 52 3
61 -6 6 -6 9 -1 6 6 -3 11 16 12 46 9 302 9 378 0 384 -7 4 -8 -20 -4 -75 5
-68 4 -82 -8 -82 -8 0 -15 6 -15 13 0 8 -4 7 -10 -3 -7 -11 -10 -8 -10 15 0
17 5 36 12 43 7 7 8 12 2 12 -6 0 -16 -10 -23 -22 -11 -23 -11 -23 -7 2 2 14
8 35 11 48 5 14 3 22 -4 22 -6 0 -11 -12 -12 -27 l-1 -28 -8 27 c-5 18 -3 51
6 89 8 34 11 71 8 83 -6 19 -5 19 10 7 10 -8 15 -23 13 -33 -3 -10 -1 -18 4
-18 13 0 11 -58 -2 -62 -7 -2 -8 -17 -4 -41 4 -21 9 -36 11 -34 4 3 12 44 13
65 1 6 8 12 16 12 8 0 15 5 15 11 0 5 -4 8 -9 4 -13 -8 -18 24 -10 63 5 21 0
53 -13 95 -16 52 -17 68 -7 99 12 37 36 52 60 38 10 -7 10 -11 0 -24 -14 -17
-5 -21 17 -8 7 5 10 15 7 24 -3 8 1 21 10 28 9 7 15 8 15 2 0 -6 -6 -12 -12
-15 -7 -2 -10 -8 -6 -11 9 -10 39 37 41 63 2 28 14 27 23 -1 6 -20 6 -42 2
-105 -1 -7 -5 -13 -10 -13 -4 0 -8 -17 -8 -37 0 -30 -3 -35 -11 -23 -9 13 -10
12 -5 -2 3 -10 1 -18 -5 -18 -6 0 -3 -10 6 -22 8 -13 21 -23 28 -23 15 0 51
119 37 123 -6 2 -10 11 -10 19 0 8 6 13 13 10 7 -3 19 4 26 15 11 17 10 22 -1
29 -7 5 -8 9 -3 9 6 0 3 4 -5 10 -9 5 -19 5 -27 -2 -9 -7 -13 -7 -13 1 0 6 5
11 10 11 18 0 11 20 -15 46 -14 14 -33 43 -41 64 -9 21 -22 41 -30 44 -18 7
-18 2 1 -34 16 -31 3 -52 -18 -31 -8 8 -8 11 1 11 7 0 12 4 12 9 0 6 -9 8 -21
6 -16 -3 -19 0 -14 15 5 15 2 20 -14 20 -24 0 -26 4 -35 55 -7 39 -7 40 9 17
9 -13 14 -29 12 -37 -3 -7 0 -16 8 -19 10 -3 12 1 8 17 -2 12 -7 33 -9 47 -5
25 -5 25 11 -2 9 -16 21 -28 27 -28 9 0 9 -3 0 -12 -18 -18 -14 -25 15 -25 14
0 31 -7 37 -16 6 -8 18 -25 26 -37 8 -13 22 -30 30 -39 8 -9 11 -11 6 -4 -4 7
-6 20 -2 28 3 9 2 14 -2 12 -4 -3 -14 5 -23 17 -16 20 -16 22 1 22 11 0 16 -5
12 -15 -4 -11 1 -13 22 -9 20 4 26 2 22 -8 -3 -8 -1 -14 4 -14 6 0 10 4 10 10
0 5 6 7 13 4 8 -3 23 15 39 48 l26 52 11 -39 c6 -22 11 -45 11 -51 0 -7 -29
-34 -65 -60 -35 -27 -64 -52 -65 -56 -1 -19 43 -18 70 2 l30 22 44 -26 c49
-29 56 -31 56 -16 0 6 -6 10 -12 10 -18 0 -106 60 -90 61 6 1 18 2 25 3 17 1
36 19 30 29 -2 4 -9 4 -15 1 -7 -5 -8 -2 -3 7 5 7 9 30 9 51 0 22 4 37 10 35
6 -2 11 -19 11 -38 0 -19 6 -38 13 -42 6 -4 12 -14 12 -22 0 -9 6 -12 15 -9 9
4 15 0 15 -7 0 -9 3 -10 8 -3 4 6 16 16 27 23 17 10 14 11 -20 6 -28 -4 -34
-3 -20 4 19 8 18 9 -5 12 -21 3 -25 9 -25 39 0 19 -4 38 -10 42 -5 4 2 8 16 8
15 0 26 -6 26 -14 0 -8 -6 -12 -12 -10 -8 3 -12 -5 -11 -24 1 -25 4 -28 18
-21 11 6 18 5 21 -4 2 -6 2 9 -1 36 -3 32 -1 47 7 47 6 0 15 10 20 22 l8 22
12 -22 c11 -20 10 -23 -5 -20 -12 2 -20 -4 -22 -17 -4 -17 -2 -18 12 -6 9 7
16 9 16 3 0 -10 -24 -33 -31 -29 -2 1 2 -4 10 -10 11 -10 17 -9 27 5 7 9 16
13 20 9 5 -4 4 -11 -1 -15 -17 -12 -14 -28 5 -29 26 -2 35 14 18 34 -7 10 -8
14 -1 10 6 -4 13 -2 15 3 2 7 15 5 36 -6 31 -15 34 -15 54 2 12 11 18 13 14 6
-7 -11 -4 -11 13 0 12 7 32 35 46 61 l24 48 10 -38 c6 -21 11 -53 11 -71 0
-21 4 -31 11 -27 6 4 8 14 5 22 -4 11 -2 13 9 9 10 -4 19 3 27 19 11 25 28 34
28 15 0 -5 5 -10 12 -10 8 0 5 7 -5 18 -17 15 -19 16 -30 1 -8 -10 -19 -14
-31 -9 -15 5 -16 9 -7 14 10 6 11 27 6 80 -8 90 -13 106 -31 106 -8 0 -36 16
-64 36 -56 40 -110 52 -162 35 -57 -19 -81 -52 -89 -126 -5 -36 -11 -70 -14
-75 -8 -12 -35 -1 -35 15 0 6 -8 19 -18 29 -11 9 -25 34 -32 56 -8 23 -29 52
-53 72 -22 18 -46 39 -54 47 -22 21 -107 25 -148 6 -41 -20 -62 -42 -40 -42 8
0 12 3 10 7 -2 4 2 7 10 7 8 0 11 -5 8 -10 -9 -15 -11 -77 -1 -71 4 3 8 15 8
27 0 31 9 41 57 66 44 22 68 27 59 12 -3 -5 8 -14 24 -21 45 -19 30 -22 -23
-6 -63 19 -60 6 6 -25 28 -13 52 -28 53 -34 0 -5 12 -34 26 -63 15 -29 29 -65
32 -80 6 -28 -8 -62 -20 -49 -4 4 -15 -7 -25 -23 -17 -27 -36 -36 -64 -30 -5
1 -25 2 -44 2 -41 0 -78 35 -87 84 -3 19 -10 32 -14 29 -5 -3 -5 7 -1 22 15
58 91 80 91 27 0 -13 5 -24 10 -24 14 0 13 6 -6 46 -16 33 -37 44 -49 24 -12
-19 -43 -31 -51 -18 -4 7 -3 8 4 4 7 -4 12 -3 12 3 0 5 -5 13 -10 16 -6 4 -8
15 -5 24 7 22 -4 53 -16 46 -4 -3 -13 4 -19 15 -25 46 -100 62 -173 35z m-310
-21 c13 -4 20 -10 17 -15 -3 -5 6 -9 20 -9 15 0 31 -8 38 -20 7 -11 18 -20 25
-20 19 0 24 -17 7 -24 -8 -3 -13 -2 -9 3 3 5 -9 12 -26 16 -21 5 -27 10 -19
15 7 4 -8 6 -32 3 -25 -3 -55 0 -67 6 -14 8 -21 8 -21 1 0 -5 -14 -10 -30 -10
-17 0 -47 -7 -66 -15 -32 -13 -35 -13 -32 2 3 17 13 24 68 47 67 27 87 31 127
20z m345 -16 c-7 -7 -12 -19 -12 -27 0 -10 12 -3 31 19 17 19 26 26 20 15 -15
-31 -51 -66 -62 -60 -5 4 -12 -1 -15 -9 -3 -9 -20 -22 -37 -31 -30 -15 -30
-15 -12 5 10 11 14 20 8 20 -11 0 -48 -63 -58 -100 -5 -19 -4 -21 4 -10 6 8
11 10 11 4 0 -14 -25 -36 -32 -28 -3 3 -9 -11 -12 -30 -4 -19 -11 -38 -16 -41
-14 -9 -12 19 2 33 7 7 9 12 6 12 -11 0 13 85 29 102 9 10 13 21 10 24 -11 11
24 66 38 60 8 -3 15 -1 17 3 5 13 80 62 86 56 3 -3 0 -11 -6 -17z m99 9 c25
-19 38 -50 32 -80 -4 -19 -10 -26 -19 -23 -29 11 -43 -4 -37 -40 6 -36 -11
-46 -35 -22 -9 9 -15 9 -20 3 -4 -6 -20 -16 -36 -23 -24 -11 -28 -11 -23 2 3
8 0 17 -8 20 -11 4 -12 0 -6 -17 5 -12 21 -26 37 -31 70 -21 72 -22 68 -61 -3
-44 -15 -59 -40 -51 -20 6 -64 40 -101 78 -16 16 -23 18 -23 8 0 -18 98 -110
117 -110 10 0 12 -7 9 -20 -3 -11 -9 -30 -12 -41 -4 -14 -2 -19 4 -15 6 3 13
20 17 36 4 16 11 32 16 36 11 6 2 -39 -13 -68 -4 -10 -6 -30 -2 -45 3 -16 2
-23 -3 -18 -4 6 -17 12 -28 13 -11 2 -41 22 -67 44 -39 32 -48 46 -48 71 0 25
3 29 11 17 13 -18 9 -5 -11 33 -11 22 -11 34 -2 61 7 18 12 42 12 54 0 21 37
64 51 59 4 -1 16 7 28 17 17 15 24 17 33 8 16 -16 28 -15 28 3 0 8 -3 14 -7
14 -25 -4 -36 2 -26 12 8 8 17 8 32 0 14 -8 21 -8 21 -1 0 5 -7 10 -15 10 -21
0 -19 8 11 47 28 36 32 38 55 20z m-176 -17 c-10 -11 -23 -20 -28 -20 -6 0 -2
9 8 20 10 11 23 20 28 20 6 0 2 -9 -8 -20z m828 -4 c14 -13 31 -26 37 -28 6
-2 13 -21 16 -42 2 -21 12 -52 21 -69 11 -22 12 -32 4 -35 -6 -2 -11 -11 -11
-19 0 -9 -6 -13 -14 -10 -8 3 -20 -1 -27 -9 -15 -18 -78 -46 -89 -39 -4 3 -10
-2 -14 -10 -9 -24 -34 -6 -63 46 -14 27 -29 45 -33 39 -4 -6 -6 21 -6 59 1 76
16 103 71 127 45 20 79 17 108 -10z m-323 -71 c1 17 30 -28 30 -47 0 -22 59
-80 75 -74 7 2 18 0 26 -6 11 -8 11 -9 -3 -4 -12 3 -15 1 -11 -9 3 -8 9 -12
14 -9 5 3 9 1 9 -5 0 -16 -23 -26 -28 -12 -3 8 -7 9 -11 3 -8 -13 -31 -16 -58
-7 -18 6 -23 15 -23 42 0 20 4 32 10 28 6 -3 10 -15 10 -25 0 -11 9 -24 19
-30 34 -18 32 6 -4 46 -19 22 -35 46 -35 56 0 9 -11 25 -25 35 -14 10 -28 31
-30 48 l-5 30 20 -35 c10 -19 19 -30 20 -25z m-733 15 c35 -12 54 -46 43 -75
-20 -54 -30 -94 -30 -117 0 -58 -95 -81 -164 -40 -27 16 -31 24 -32 63 0 24
-4 66 -9 93 -7 45 -6 51 15 68 26 21 127 25 177 8z m445 -32 c-8 -8 -9 -4 -5
13 4 13 8 18 11 10 2 -7 -1 -18 -6 -23z m748 2 c0 -5 -2 -10 -4 -10 -3 0 -8 5
-11 10 -3 6 -1 10 4 10 6 0 11 -4 11 -10z m-25 -30 c0 -13 -6 -25 -12 -27 -9
-3 -13 6 -13 27 0 21 4 30 13 28 6 -3 12 -15 12 -28z m-737 -3 c3 -16 1 -17
-17 -5 -25 16 -27 31 -4 26 10 -2 19 -11 21 -21z m35 8 c4 -8 2 -17 -3 -20 -6
-4 -10 3 -10 14 0 25 6 27 13 6z m277 -21 c0 -8 -5 -12 -10 -9 -6 4 -8 11 -5
16 9 14 15 11 15 -7z m-320 -45 c0 -30 -16 -47 -31 -32 -4 4 -6 25 -2 46 4 30
8 35 19 26 8 -6 14 -24 14 -40z m-59 -7 c8 -20 6 -21 -11 -12 -10 5 -29 11
-42 11 -17 1 -18 3 -5 6 9 2 17 9 17 14 0 19 33 4 41 -19z m832 -15 c-4 -6
-10 -2 -14 9 -12 31 -9 40 6 20 8 -10 11 -24 8 -29z m-783 -38 c0 -4 -11 -21
-26 -36 l-25 -28 16 34 c9 18 12 30 6 27 -11 -7 -15 6 -5 17 8 7 34 -3 34 -14z
m691 -22 c-8 -8 -11 -7 -11 4 0 9 3 19 7 23 4 4 9 2 11 -4 3 -7 -1 -17 -7 -23z
m-40 3 c-13 -11 -33 -20 -45 -20 -15 0 -10 6 19 19 51 25 55 25 26 1z m-910
-30 c6 23 7 23 8 -8 1 -18 -3 -31 -8 -27 -6 3 -6 -6 -1 -25 13 -45 2 -36 -20
16 -23 52 -24 58 -10 49 6 -3 11 0 11 7 1 7 4 2 7 -12 l5 -25 8 25z m-351 -60
c6 -11 15 -18 20 -15 4 3 18 -7 29 -22 13 -18 21 -23 21 -13 0 10 7 7 20 -10
l21 -25 -7 28 c-5 21 -3 27 10 27 9 0 16 -5 16 -11 0 -6 9 -8 20 -4 11 4 20 2
20 -4 0 -6 -6 -10 -12 -8 -7 1 -12 -3 -11 -9 3 -18 -44 -23 -72 -8 -14 7 -29
13 -33 13 -4 0 -23 15 -42 33 -19 18 -29 25 -21 16 15 -20 2 -25 -16 -7 -14
14 -6 39 13 39 7 0 18 -9 24 -20z m75 -20 c3 -5 2 -10 -4 -10 -5 0 -13 5 -16
10 -3 6 -2 10 4 10 5 0 13 -4 16 -10z m620 -4 c21 -15 13 -51 -10 -43 -9 4
-12 1 -9 -8 9 -21 64 2 64 27 0 10 5 16 10 13 7 -4 6 -13 -1 -26 -6 -11 -8
-27 -5 -35 4 -9 2 -12 -5 -8 -6 4 -15 0 -20 -7 -16 -27 -79 -16 -79 14 0 5 9
2 20 -8 11 -10 20 -13 20 -7 0 7 -4 12 -9 12 -14 0 -21 28 -14 60 6 34 11 36
38 16z m135 -126 c0 -5 -7 -10 -16 -10 -8 0 -12 5 -9 10 3 6 10 10 16 10 5 0
9 -4 9 -10z m-340 -45 c7 -8 16 -12 21 -10 10 7 31 -30 21 -40 -4 -3 0 -5 8
-3 10 2 16 -6 18 -27 3 -29 2 -29 -22 11 -26 42 -50 59 -67 48 -6 -3 -7 -14
-4 -24 3 -10 1 -21 -4 -24 -15 -10 -25 53 -11 69 16 19 24 19 40 0z m78 -14
c3 -9 0 -11 -8 -6 -9 5 -11 4 -6 -4 4 -6 11 -9 15 -6 8 4 30 -17 46 -44 5 -9
4 -12 -3 -7 -16 10 -24 -10 -8 -23 8 -7 17 -24 21 -38 5 -22 8 -24 16 -12 7
10 8 5 3 -16 -9 -38 -14 -44 -14 -16 0 13 -13 34 -30 49 -35 31 -37 40 -12 58
16 12 16 13 0 14 -17 0 -58 44 -58 62 0 14 33 5 38 -11z m242 -21 c0 -5 -4
-10 -9 -10 -6 0 -13 5 -16 10 -3 6 1 10 9 10 9 0 16 -4 16 -10z m-693 -57 c-3
-10 -5 -4 -5 12 0 17 2 24 5 18 2 -7 2 -21 0 -30z m687 22 c-4 -8 -11 -12 -16
-9 -6 4 -5 10 3 15 19 12 19 11 13 -6z m-364 -28 c0 -2 -10 -12 -21 -23 -22
-19 -22 -19 -8 4 12 19 29 30 29 19z m350 -7 c0 -5 -7 -10 -15 -10 -8 0 -15 5
-15 10 0 6 7 10 15 10 8 0 15 -4 15 -10z m-130 -357 c0 -15 -2 -16 -10 -3 -5
8 -10 10 -10 5 0 -6 5 -16 12 -23 9 -9 7 -12 -9 -12 -15 0 -20 6 -20 25 0 18
5 25 18 25 11 0 19 -7 19 -17z m-140 -13 c3 -1 9 -2 13 -1 68 11 77 10 77 -11
0 -18 -2 -19 -17 -7 -11 10 -14 10 -9 2 4 -8 2 -13 -6 -13 -8 0 -20 6 -27 13
-10 10 -12 9 -9 -2 2 -9 -10 -15 -40 -18 -27 -2 -42 0 -38 6 3 5 0 12 -6 14
-10 4 -10 7 0 15 11 7 45 8 62 2z m807 -344 c29 0 53 -5 53 -10 0 -12 -146 0
-168 14 -13 8 -7 9 22 4 22 -4 63 -7 93 -8z m-29 -30 c44 -4 48 -11 19 -31
-18 -12 -38 -14 -73 -10 -26 3 -49 7 -51 8 -1 2 0 13 4 25 5 19 10 22 37 17
17 -3 46 -7 64 -9z m-119 -81 c1 17 8 20 46 20 25 0 45 -2 45 -5 0 -6 -66 -60
-74 -60 -13 0 -36 34 -35 53 1 20 2 20 9 -3 7 -21 8 -22 9 -5z m251 -135 c-8
-5 -22 -9 -30 -9 -10 0 -8 3 5 9 27 12 43 12 25 0z"/>
<path d="M945 1670 c3 -5 14 -10 23 -10 15 0 15 2 2 10 -20 13 -33 13 -25 0z"/>
<path d="M1275 1630 c-10 -11 -16 -22 -14 -24 2 -2 12 7 22 20 22 29 17 32 -8
4z"/>
<path d="M1421 1644 c0 -11 3 -14 6 -6 3 7 2 16 -1 19 -3 4 -6 -2 -5 -13z"/>
<path d="M1330 1431 c0 -5 5 -13 10 -16 6 -3 10 -2 10 4 0 5 -4 13 -10 16 -5
3 -10 2 -10 -4z"/>
<path d="M1290 1251 c0 -12 5 -21 10 -21 6 0 10 6 10 14 0 8 -4 18 -10 21 -5
3 -10 -3 -10 -14z"/>
<path d="M2022 1648 c-18 -9 -22 -18 -20 -41 2 -17 10 -33 18 -35 13 -5 13 -3
1 12 -11 13 -11 20 -2 29 9 9 14 9 19 1 5 -9 11 -8 20 2 10 12 10 14 -2 14
-10 0 -13 6 -10 15 7 17 7 17 -24 3z"/>
<path d="M1916 1594 c-21 -20 -10 -40 12 -22 12 10 14 10 8 1 -4 -7 -3 -13 2
-13 6 0 13 8 18 18 6 13 9 8 13 -20 6 -37 6 -38 33 -24 15 8 29 12 32 8 3 -3
6 0 6 6 0 15 -26 16 -35 2 -11 -18 -25 -11 -25 13 0 43 -35 60 -64 31z"/>
<path d="M2042 1514 c-10 -11 -10 -14 0 -14 9 0 9 -3 -2 -10 -22 -14 -43 -12
-34 3 5 7 1 7 -12 -3 -29 -22 -30 -24 -11 -17 9 4 17 2 17 -4 0 -14 41 -1 63
20 15 14 16 20 5 28 -9 8 -17 7 -26 -3z"/>
<path d="M880 1561 l25 -7 -25 -8 c-15 -4 -20 -9 -12 -13 7 -3 20 -1 30 3 9 4
20 6 25 6 4 -1 7 5 7 13 0 11 -10 15 -37 14 -33 -1 -35 -2 -13 -8z"/>
<path d="M960 1535 c-11 -20 -11 -27 1 -41 12 -15 10 -16 -24 -12 -44 5 -36
-9 11 -18 34 -7 40 2 23 35 -6 11 -6 22 0 32 8 11 12 11 16 2 2 -7 14 -13 26
-13 18 0 19 2 7 10 -13 9 -13 10 0 10 13 0 13 1 0 10 -25 16 -46 11 -60 -15z"/>
<path d="M1041 1534 c0 -11 3 -14 6 -6 3 7 2 16 -1 19 -3 4 -6 -2 -5 -13z"/>
<path d="M927 1513 c-4 -3 -7 -11 -7 -17 0 -6 5 -5 12 2 6 6 9 14 7 17 -3 3
-9 2 -12 -2z"/>
<path d="M851 1444 c0 -11 3 -14 6 -6 3 7 2 16 -1 19 -3 4 -6 -2 -5 -13z"/>
<path d="M1004 1415 c-5 -24 -7 -42 -2 -39 8 5 23 73 16 79 -2 2 -8 -16 -14
-40z"/>
<path d="M890 1430 c0 -7 8 -10 20 -7 11 3 20 2 20 -1 0 -4 14 -7 30 -8 17 -1
30 3 30 7 0 5 -8 9 -19 9 -10 0 -33 3 -50 6 -21 5 -31 3 -31 -6z"/>
<path d="M1308 613 c7 -3 16 -2 19 1 4 3 -2 6 -13 5 -11 0 -14 -3 -6 -6z"/>
<path d="M1640 1611 c-15 -4 -24 -14 -24 -26 0 -30 14 -65 25 -65 12 0 12 17
-1 25 -19 12 -10 45 15 55 14 5 25 12 25 15 0 6 -7 5 -40 -4z"/>
<path d="M1655 1580 c-3 -5 3 -10 14 -10 12 0 21 5 21 10 0 6 -6 10 -14 10 -8
0 -18 -4 -21 -10z"/>
<path d="M1540 1540 c-8 -5 -12 -11 -9 -14 3 -3 14 1 25 9 21 16 8 20 -16 5z"/>
<path d="M1625 1503 c-25 -6 -44 -23 -27 -23 9 0 10 -5 2 -19 -5 -11 -9 -32
-9 -48 1 -22 3 -23 6 -6 4 22 56 53 94 56 29 2 17 21 -16 25 -21 3 -25 6 -14
13 12 7 12 9 -1 8 -8 -1 -24 -3 -35 -6z m24 -43 c-40 -19 -44 -18 -28 7 8 14
19 18 37 15 25 -5 25 -5 -9 -22z"/>
<path d="M1646 1431 c-7 -10 18 -34 27 -25 7 8 -3 34 -13 34 -5 0 -11 -4 -14
-9z"/>
<path d="M2272 1378 c-7 -7 -12 -23 -12 -37 1 -24 2 -24 16 8 8 19 17 31 20
28 4 -3 0 -20 -7 -36 -14 -32 -41 -50 -47 -32 -4 13 -52 15 -52 2 0 -5 -9 -13
-20 -16 -11 -3 -20 -10 -20 -15 0 -11 32 -1 41 13 4 5 15 7 25 5 14 -3 4 -14
-43 -46 -34 -23 -69 -42 -78 -42 -19 0 -75 31 -75 41 0 14 -31 18 -50 7 -26
-16 -40 0 -16 18 11 8 15 14 9 14 -6 0 -16 -7 -24 -16 -7 -8 -21 -13 -31 -10
-15 3 -17 1 -9 -8 6 -7 7 -16 3 -21 -4 -4 2 -3 14 3 12 7 26 7 35 1 19 -12 32
-11 24 1 -8 14 1 13 33 -4 35 -18 57 -43 70 -81 l10 -30 1 27 c1 21 10 31 46
49 24 12 65 39 91 61 25 21 48 38 49 38 2 0 1 -10 -2 -22 -4 -19 -3 -20 6 -8
6 8 11 25 11 37 0 24 38 52 49 36 6 -10 51 -25 51 -17 0 2 -18 12 -40 21 -22
10 -40 23 -40 30 0 16 -22 17 -38 1z"/>
<path d="M2000 1350 c0 -5 5 -10 11 -10 5 0 7 5 4 10 -3 6 -8 10 -11 10 -2 0
-4 -4 -4 -10z"/>
<path d="M2090 1320 c-14 -11 -20 -20 -14 -20 6 0 19 9 29 20 23 25 17 25 -15
0z"/>
<path d="M2000 1318 c0 -16 31 -56 56 -73 24 -15 25 -15 22 2 -2 10 -9 24 -16
31 -7 8 -9 18 -6 24 5 7 0 9 -14 6 -14 -4 -19 -2 -16 6 3 7 -2 13 -11 13 -8 0
-15 -4 -15 -9z"/>
<path d="M2492 1277 c35 -26 47 -45 65 -97 12 -36 23 -60 23 -55 2 17 19 -28
19 -52 1 -20 -2 -21 -22 -14 -40 15 -104 16 -121 2 -27 -23 -29 -6 -6 59 25
71 22 91 -4 28 -10 -24 -29 -67 -43 -96 -14 -29 -22 -56 -19 -60 4 -3 9 3 12
15 7 27 23 33 105 40 77 7 107 -5 107 -42 0 -17 -5 -24 -13 -21 -63 24 -176
11 -202 -22 -12 -16 -13 -16 -7 1 9 24 -13 21 -26 -4 -7 -11 -10 -23 -8 -25 3
-2 31 3 64 12 56 15 149 14 174 -1 5 -3 10 -17 10 -31 0 -23 -2 -24 -40 -18
-50 8 -115 8 -162 -1 -28 -5 -37 -13 -41 -31 l-4 -25 21 23 c19 20 21 21 24 4
4 -16 5 -16 19 4 9 13 19 18 25 12 5 -5 -5 -35 -28 -78 -20 -37 -40 -80 -45
-94 l-9 -25 20 25 c12 14 38 59 59 100 32 65 40 75 62 72 13 -1 37 -2 53 -3
l29 0 -6 -59 c-3 -32 -9 -64 -13 -72 -4 -7 -9 -46 -9 -88 -2 -107 -3 -110 -20
-104 -8 4 -15 1 -15 -6 0 -6 4 -9 9 -5 5 3 13 0 16 -6 4 -6 -9 -28 -30 -49
-20 -21 -32 -39 -25 -42 7 -2 3 -12 -10 -26 -20 -22 -20 -22 -1 -22 17 0 20
-8 23 -57 4 -71 -13 -124 -41 -135 -25 -9 -26 -16 -5 -46 8 -12 12 -22 7 -22
-4 0 -1 -5 7 -10 13 -9 13 -12 -2 -21 -21 -12 -24 -31 -4 -23 8 3 16 -3 19
-15 3 -12 1 -21 -4 -21 -5 0 -9 -9 -9 -21 0 -11 5 -17 10 -14 6 3 10 1 10 -4
0 -6 4 -11 10 -11 5 0 7 6 5 12 -8 25 -14 137 -7 141 4 2 2 2 -5 1 -6 -2 -19
8 -27 22 -18 26 -15 29 13 14 16 -8 19 -3 29 43 20 96 23 132 13 180 -8 43 -6
51 14 75 29 36 35 59 44 177 5 55 16 152 26 215 9 63 15 140 13 170 -6 78 -66
201 -116 235 -53 36 -61 31 -10 -8z"/>
<path d="M2090 1278 c0 -4 4 -8 9 -8 6 0 12 4 15 8 3 5 -1 9 -9 9 -8 0 -15 -4
-15 -9z"/>
<path d="M1116 1270 c5 -8 9 -18 9 -22 0 -5 4 -8 8 -9 18 -2 16 9 -5 27 -13
11 -18 13 -12 4z"/>
<path d="M1420 1252 c0 -12 -4 -22 -10 -22 -5 0 -10 -10 -10 -22 1 -22 1 -22
11 -4 9 15 13 16 20 5 6 -9 7 -1 3 21 -8 42 -14 51 -14 22z"/>
<path d="M1842 1240 c0 -14 2 -19 5 -12 2 6 2 18 0 25 -3 6 -5 1 -5 -13z"/>
<path d="M2347 1239 c7 -7 15 -10 18 -7 3 3 -2 9 -12 12 -14 6 -15 5 -6 -5z"/>
<path d="M1107 1211 c-3 -12 -1 -21 3 -21 15 0 23 21 12 32 -6 6 -11 2 -15
-11z"/>
<path d="M1895 1190 c-21 -23 -9 -26 18 -6 10 8 14 17 9 20 -5 3 -17 -3 -27
-14z"/>
<path d="M1978 1203 c6 -2 18 -2 25 0 6 3 1 5 -13 5 -14 0 -19 -2 -12 -5z"/>
<path d="M1055 1185 c-25 -12 -26 -14 -5 -9 14 4 29 10 35 15 12 12 5 11 -30
-6z"/>
<path d="M1952 1186 c7 -8 15 -12 17 -11 5 6 -10 25 -20 25 -5 0 -4 -6 3 -14z"/>
<path d="M2412 1158 c-21 -36 -67 -167 -60 -174 2 -2 15 27 28 64 13 37 31 84
42 105 23 46 17 49 -10 5z"/>
<path d="M1158 1160 c17 -11 32 -27 32 -35 0 -10 5 -13 12 -9 13 8 -44 64 -65
64 -6 0 3 -9 21 -20z"/>
<path d="M1036 1074 c-31 -52 -56 -98 -56 -102 1 -21 84 113 112 181 17 39 -3
11 -56 -79z"/>
<path d="M1406 1155 c4 -8 8 -15 10 -15 2 0 4 7 4 15 0 8 -4 15 -10 15 -5 0
-7 -7 -4 -15z"/>
<path d="M1855 1160 c-3 -5 -1 -10 4 -10 6 0 11 5 11 10 0 6 -2 10 -4 10 -3 0
-8 -4 -11 -10z"/>
<path d="M1556 1123 c-6 -14 -5 -15 5 -6 7 7 10 15 7 18 -3 3 -9 -2 -12 -12z"/>
<path d="M1757 1133 c-10 -10 -8 -23 4 -23 5 0 8 4 5 9 -4 5 0 12 6 14 7 3 8
6 2 6 -6 1 -14 -2 -17 -6z"/>
<path d="M1844 1128 c4 -19 23 -20 30 -2 5 14 4 15 -8 5 -10 -8 -16 -9 -19 -1
-3 6 -4 5 -3 -2z"/>
<path d="M1932 1119 c-24 -38 -32 -68 -20 -75 6 -4 8 -3 5 3 -4 6 2 27 13 48
21 42 22 57 2 24z"/>
<path d="M1163 1075 c0 -8 4 -12 9 -9 4 3 8 9 8 15 0 5 -4 9 -8 9 -5 0 -9 -7
-9 -15z"/>
<path d="M1520 1079 c0 -5 5 -7 10 -4 6 3 10 8 10 11 0 2 -4 4 -10 4 -5 0 -10
-5 -10 -11z"/>
<path d="M1757 1069 c7 -9 10 -19 6 -22 -3 -4 -1 -7 5 -7 17 0 15 16 -5 31
-16 12 -17 12 -6 -2z"/>
<path d="M1976 1058 c-21 -74 -46 -192 -41 -196 5 -6 6 -5 35 116 13 51 20 95
18 98 -3 2 -8 -6 -12 -18z"/>
<path d="M1715 1060 c-3 -6 1 -7 9 -4 18 7 21 14 7 14 -6 0 -13 -4 -16 -10z"/>
<path d="M592 1030 c0 -19 2 -27 5 -17 2 9 2 25 0 35 -3 9 -5 1 -5 -18z"/>
<path d="M1049 1020 c-7 -22 -15 -40 -19 -40 -4 0 -7 -15 -7 -32 l-1 -33 10
30 c6 17 14 35 18 40 10 13 23 75 16 75 -3 0 -11 -18 -17 -40z"/>
<path d="M1931 1053 c-1 -6 -4 -20 -7 -30 -5 -17 -5 -17 6 0 6 10 9 23 6 30
-3 9 -5 9 -5 0z"/>
<path d="M623 1005 c0 -22 2 -30 4 -17 2 12 2 30 0 40 -3 9 -5 -1 -4 -23z"/>
<path d="M1666 1004 c-4 -14 -5 -28 -3 -31 3 -2 8 8 11 23 4 14 5 28 3 31 -3
2 -8 -8 -11 -23z"/>
<path d="M1902 980 c0 -30 2 -49 5 -42 2 6 9 10 13 7 5 -3 12 0 16 6 4 7 3 9
-3 6 -15 -10 -24 18 -10 32 8 8 8 11 0 11 -6 0 -14 8 -16 18 -3 9 -5 -8 -5
-38z"/>
<path d="M1852 1011 c-11 -7 -11 -9 2 -14 17 -7 22 -47 6 -47 -5 0 -9 -18 -8
-40 1 -21 5 -37 9 -34 5 3 6 19 2 36 -4 22 -3 29 5 24 8 -5 12 4 12 28 0 20
-5 36 -11 36 -5 0 -7 5 -4 10 7 12 4 12 -13 1z"/>
<path d="M1515 990 c-3 -5 -1 -10 4 -10 6 0 11 5 11 10 0 6 -2 10 -4 10 -3 0
-8 -4 -11 -10z"/>
<path d="M602 970 c0 -14 2 -19 5 -12 2 6 2 18 0 25 -3 6 -5 1 -5 -13z"/>
<path d="M835 979 c-4 -6 -5 -12 -2 -15 2 -3 7 2 10 11 7 17 1 20 -8 4z"/>
<path d="M1546 977 c3 -10 9 -15 12 -12 3 3 0 11 -7 18 -10 9 -11 8 -5 -6z"/>
<path d="M1305 970 c-3 -5 -2 -10 4 -10 5 0 13 5 16 10 3 6 2 10 -4 10 -5 0
-13 -4 -16 -10z"/>
<path d="M635 949 c-4 -6 -5 -12 -2 -15 2 -3 7 2 10 11 7 17 1 20 -8 4z"/>
<path d="M1172 935 c0 -16 2 -22 5 -12 2 9 2 23 0 30 -3 6 -5 -1 -5 -18z"/>
<path d="M1630 939 c0 -5 5 -7 10 -4 6 3 10 8 10 11 0 2 -4 4 -10 4 -5 0 -10
-5 -10 -11z"/>
<path d="M1315 923 c-11 -3 -24 -10 -30 -15 -7 -7 -2 -8 15 -3 52 15 64 30 15
18z"/>
<path d="M1723 917 c0 -8 6 -14 14 -14 9 0 10 4 2 14 -6 7 -12 13 -14 13 -1 0
-2 -6 -2 -13z"/>
<path d="M780 890 c-7 -16 -16 -30 -21 -30 -5 0 -9 -5 -9 -12 0 -6 -8 -21 -18
-32 -10 -12 -24 -34 -31 -51 -16 -39 -5 -26 57 67 54 80 58 88 43 88 -5 0 -14
-13 -21 -30z"/>
<path d="M1482 900 c0 -14 2 -19 5 -12 2 6 2 18 0 25 -3 6 -5 1 -5 -13z"/>
<path d="M1420 891 c0 -5 5 -13 10 -16 6 -3 10 -2 10 4 0 5 -4 13 -10 16 -5 3
-10 2 -10 -4z"/>
<path d="M591 870 c0 -8 6 -28 14 -45 17 -39 18 -21 0 25 -7 19 -14 28 -14 20z"/>
<path d="M1560 873 c8 -3 18 -11 22 -17 5 -7 8 -4 8 7 0 11 -7 17 -22 16 -16
0 -18 -2 -8 -6z"/>
<path d="M1843 848 c7 -21 -12 -33 -66 -43 -28 -6 -45 -2 -72 14 -20 12 -33
16 -30 11 12 -20 66 -41 93 -37 75 12 90 19 87 39 -3 12 -7 23 -11 27 -4 3 -4
-2 -1 -11z"/>
<path d="M962 750 c0 -19 2 -27 5 -17 2 9 2 25 0 35 -3 9 -5 1 -5 -18z"/>
<path d="M550 766 c0 -2 7 -7 16 -10 8 -3 12 -2 9 4 -6 10 -25 14 -25 6z"/>
<path d="M2031 754 c0 -11 3 -14 6 -6 3 7 2 16 -1 19 -3 4 -6 -2 -5 -13z"/>
<path d="M587 743 c-4 -3 -7 -13 -7 -22 1 -13 3 -13 11 2 11 19 8 33 -4 20z"/>
<path d="M615 720 c-11 -16 -23 -30 -27 -30 -5 0 -8 -7 -8 -16 0 -9 -5 -12
-12 -8 -7 4 -8 3 -4 -5 4 -6 11 -9 14 -7 14 8 73 96 65 96 -4 0 -17 -14 -28
-30z"/>
<path d="M1382 715 c0 -16 2 -22 5 -12 2 9 2 23 0 30 -3 6 -5 -1 -5 -18z"/>
<path d="M1845 719 c-4 -6 -5 -12 -2 -15 2 -3 7 2 10 11 7 17 1 20 -8 4z"/>
<path d="M2072 705 c0 -16 2 -22 5 -12 2 9 2 23 0 30 -3 6 -5 -1 -5 -18z"/>
<path d="M1680 711 c0 -5 7 -12 16 -15 14 -5 15 -4 4 9 -14 17 -20 19 -20 6z"/>
<path d="M1720 700 c0 -5 5 -10 11 -10 5 0 7 5 4 10 -3 6 -8 10 -11 10 -2 0
-4 -4 -4 -10z"/>
<path d="M1765 700 c-3 -6 1 -7 9 -4 18 7 21 14 7 14 -6 0 -13 -4 -16 -10z"/>
<path d="M981 643 c0 -17 -8 -58 -15 -90 -8 -32 -17 -73 -20 -91 -2 -19 -7
-36 -9 -39 -3 -2 -1 -19 4 -36 5 -19 5 -46 -2 -71 -6 -22 -11 -55 -11 -74 0
-31 -1 -32 -31 -27 -18 2 -75 12 -127 20 -52 9 -122 22 -155 30 -33 7 -61 12
-63 10 -7 -7 171 -49 253 -61 17 -2 50 -10 75 -18 41 -12 45 -16 51 -52 6 -36
6 -34 9 21 2 33 2 69 1 80 -1 15 1 17 11 7 6 -6 17 -12 23 -12 5 0 2 5 -7 11
-21 12 -25 78 -6 97 8 8 8 15 -1 26 -10 12 -11 27 -2 63 18 84 33 199 28 219
-3 12 -5 8 -6 -13z"/>
<path d="M1550 650 c-6 -11 -7 -20 -2 -20 6 0 12 9 15 20 3 11 3 20 1 20 -2 0
-8 -9 -14 -20z"/>
<path d="M1875 646 c-23 -25 -26 -40 -4 -19 12 12 21 24 18 27 -2 2 -9 -1 -14
-8z"/>
<path d="M1670 643 c5 -2 8 -9 4 -14 -3 -5 0 -9 6 -9 15 0 7 23 -8 26 -7 1 -8
0 -2 -3z"/>
<path d="M1709 638 c-2 -21 2 -42 10 -50 4 -4 7 1 7 12 0 11 -4 20 -8 20 -4 0
-5 7 -2 15 4 8 3 15 0 15 -3 0 -7 -6 -7 -12z"/>
<path d="M2061 625 c0 -16 -4 -41 -6 -55 l-6 -25 11 25 c6 13 9 38 7 55 l-4
30 -2 -30z"/>
<path d="M1613 628 c-7 -8 -8 -19 -3 -28 8 -12 10 -12 15 2 10 26 2 43 -12 26z"/>
<path d="M553 619 c21 -12 23 -33 1 -25 -8 3 -12 2 -9 -4 12 -20 35 -10 35 15
0 19 -5 25 -22 25 -21 -1 -21 -2 -5 -11z"/>
<path d="M1000 615 c0 -15 18 -40 24 -34 3 3 -1 14 -9 25 -8 10 -14 15 -15 9z"/>
<path d="M1655 600 c-3 -5 1 -10 9 -10 9 0 16 5 16 10 0 6 -4 10 -9 10 -6 0
-13 -4 -16 -10z"/>
<path d="M1540 586 c0 -9 5 -16 10 -16 6 0 10 4 10 9 0 6 -4 13 -10 16 -5 3
-10 -1 -10 -9z"/>
<path d="M1850 582 c0 -20 29 -64 30 -45 0 6 -4 14 -9 17 -5 3 -7 15 -4 26 3
11 0 20 -6 20 -6 0 -11 -8 -11 -18z"/>
<path d="M1822 570 c0 -14 2 -19 5 -12 2 6 2 18 0 25 -3 6 -5 1 -5 -13z"/>
<path d="M1420 538 c-3 -26 -1 -43 3 -39 5 5 7 26 5 47 l-3 39 -5 -47z"/>
<path d="M1596 572 c-3 -5 1 -9 9 -9 8 0 15 4 15 9 0 4 -4 8 -9 8 -6 0 -12 -4
-15 -8z"/>
<path d="M1700 560 c0 -5 7 -7 15 -4 8 4 15 8 15 10 0 2 -7 4 -15 4 -8 0 -15
-4 -15 -10z"/>
<path d="M564 537 c4 -19 3 -26 -4 -22 -11 7 -14 -8 -4 -18 7 -6 34 16 34 28
0 4 -8 14 -17 23 -15 16 -16 15 -9 -11z"/>
<path d="M1539 558 c-4 -15 -9 -51 -6 -47 15 16 26 49 17 49 -5 0 -10 -1 -11
-2z"/>
<path d="M1020 541 c0 -18 12 -41 21 -41 15 0 10 37 -6 44 -8 3 -15 1 -15 -3z"/>
<path d="M1117 539 c7 -7 15 -10 18 -7 3 3 -2 9 -12 12 -14 6 -15 5 -6 -5z"/>
<path d="M498 533 c7 -3 16 -2 19 1 4 3 -2 6 -13 5 -11 0 -14 -3 -6 -6z"/>
<path d="M1823 526 c4 -10 7 -30 8 -44 0 -24 1 -24 8 -7 9 23 3 52 -12 62 -7
4 -8 0 -4 -11z"/>
<path d="M2368 533 c7 -3 16 -2 19 1 4 3 -2 6 -13 5 -11 0 -14 -3 -6 -6z"/>
<path d="M1666 513 c-6 -14 -5 -15 5 -6 7 7 10 15 7 18 -3 3 -9 -2 -12 -12z"/>
<path d="M1590 510 c0 -5 5 -10 11 -10 5 0 7 5 4 10 -3 6 -8 10 -11 10 -2 0
-4 -4 -4 -10z"/>
<path d="M1520 486 c0 -8 4 -17 8 -20 4 -2 8 4 8 15 0 10 -4 19 -8 19 -4 0 -8
-6 -8 -14z"/>
<path d="M488 483 c6 -2 18 -2 25 0 6 3 1 5 -13 5 -14 0 -19 -2 -12 -5z"/>
<path d="M1028 483 c12 -2 22 -10 22 -16 0 -7 8 -21 17 -32 15 -19 15 -19 9 7
-6 28 -6 28 38 22 27 -4 46 -2 50 5 10 16 66 -15 66 -37 0 -13 2 -14 9 -3 5 7
14 10 20 7 6 -4 11 -3 11 3 0 5 -10 11 -22 13 -13 2 -21 8 -19 13 7 14 -50 23
-76 12 -14 -6 -32 -6 -52 1 -23 8 -31 8 -31 -1 0 -8 -3 -8 -12 1 -7 7 -21 11
-32 11 -19 -2 -19 -2 2 -6z"/>
<path d="M1588 462 c4 -10 7 -12 10 -4 2 7 9 9 15 5 7 -3 8 -2 4 2 -14 16 -36
14 -29 -3z"/>
<path d="M1800 465 c-7 -9 -11 -17 -9 -20 3 -2 10 5 17 15 14 24 10 26 -8 5z"/>
<path d="M2385 460 c-3 -5 1 -10 10 -10 9 0 13 5 10 10 -3 6 -8 10 -10 10 -2
0 -7 -4 -10 -10z"/>
<path d="M1698 453 c7 -3 16 -2 19 1 4 3 -2 6 -13 5 -11 0 -14 -3 -6 -6z"/>
<path d="M1110 440 c-20 -6 -21 -8 -5 -8 11 0 29 3 40 8 25 11 -1 11 -35 0z"/>
<path d="M1510 444 c0 -3 7 -12 15 -20 16 -17 18 -14 9 10 -6 15 -24 23 -24
10z"/>
<path d="M1841 434 c0 -11 3 -14 6 -6 3 7 2 16 -1 19 -3 4 -6 -2 -5 -13z"/>
<path d="M566 425 c-3 -8 -1 -15 4 -15 6 0 10 7 10 15 0 8 -2 15 -4 15 -2 0
-6 -7 -10 -15z"/>
<path d="M1580 431 c0 -6 5 -13 10 -16 6 -3 10 1 10 9 0 9 -4 16 -10 16 -5 0
-10 -4 -10 -9z"/>
<path d="M508 413 c6 -2 18 -2 25 0 6 3 1 5 -13 5 -14 0 -19 -2 -12 -5z"/>
<path d="M1820 406 c0 -8 4 -17 9 -20 5 -4 7 3 4 14 -6 23 -13 26 -13 6z"/>
<path d="M2340 410 c-12 -8 -10 -10 8 -10 13 0 20 4 17 10 -7 12 -6 12 -25 0z"/>
<path d="M995 400 c-3 -5 1 -10 9 -10 9 0 16 -5 16 -12 0 -6 2 -9 5 -6 7 7 -5
38 -15 38 -5 0 -12 -4 -15 -10z"/>
<path d="M1080 400 c0 -5 9 -9 20 -7 31 5 36 17 7 17 -15 0 -27 -4 -27 -10z"/>
<path d="M1229 401 c7 -5 11 -13 7 -19 -3 -5 1 -13 10 -16 12 -5 15 -2 10 10
-3 8 -6 20 -6 25 0 5 -8 9 -17 9 -14 0 -15 -2 -4 -9z"/>
<path d="M1134 388 c-3 -4 15 -8 40 -8 25 0 46 2 46 4 0 8 -82 11 -86 4z"/>
<path d="M1371 384 c0 -11 3 -14 6 -6 3 7 2 16 -1 19 -3 4 -6 -2 -5 -13z"/>
<path d="M1583 339 c-2 -53 -1 -59 12 -49 18 15 20 34 3 24 -10 -6 -10 -4 -2
7 12 14 8 79 -5 79 -3 0 -7 -27 -8 -61z"/>
<path d="M1550 380 c0 -5 5 -10 11 -10 5 0 7 5 4 10 -3 6 -8 10 -11 10 -2 0
-4 -4 -4 -10z"/>
<path d="M2455 356 c-15 -20 -25 -42 -22 -50 4 -10 1 -13 -9 -9 -7 3 -14 0
-14 -7 0 -6 5 -8 10 -5 6 3 10 2 10 -3 0 -6 -23 -13 -50 -17 -40 -5 -59 -3
-90 13 -22 11 -40 15 -40 10 0 -5 -4 -6 -10 -3 -20 13 -9 -14 12 -29 12 -9 19
-17 15 -17 -4 -1 -11 -2 -16 -3 -5 0 -12 -4 -16 -8 -6 -5 19 -4 35 2 3 1 10 1
15 0 6 -1 -1 10 -14 24 -27 28 -18 36 10 10 10 -9 28 -17 39 -18 11 0 19 -5
18 -11 -2 -5 -11 -10 -21 -9 -12 0 -14 -3 -8 -9 7 -7 5 -15 -7 -23 -15 -12
-15 -13 5 -9 29 5 63 24 44 25 -24 0 9 30 34 30 27 0 43 19 79 89 33 63 28 76
-9 27z"/>
<path d="M490 370 c-24 -8 -24 -8 6 -9 38 -1 55 -19 47 -49 -8 -34 4 -26 16
10 6 17 8 29 4 25 -3 -4 -12 2 -20 13 -15 22 -16 22 -53 10z"/>
<path d="M1092 359 c11 -17 19 -19 52 -14 61 9 75 23 19 18 -31 -3 -53 -1 -57
6 -4 6 -11 11 -17 11 -5 0 -4 -9 3 -21z"/>
<path d="M1036 351 c-4 -5 3 -7 14 -4 23 6 26 13 6 13 -8 0 -17 -4 -20 -9z"/>
<path d="M1260 345 c-7 -8 -17 -12 -23 -8 -5 3 -8 2 -4 -3 3 -5 -23 -9 -59 -9
-59 0 -63 -1 -58 -20 5 -19 29 -43 81 -83 25 -20 28 -28 11 -30 -7 -1 -28 -5
-47 -8 -26 -5 -32 -4 -26 6 5 9 4 11 -3 6 -9 -5 -9 -13 -2 -27 7 -13 7 -19 0
-19 -5 0 -10 5 -10 11 0 6 -6 9 -14 6 -14 -6 -32 8 -36 28 -4 16 -44 59 -68
73 -31 17 -27 -2 4 -23 17 -11 24 -23 21 -35 -3 -13 2 -20 17 -24 11 -3 38
-22 59 -42 30 -29 37 -43 32 -61 -3 -14 -1 -23 6 -23 6 0 8 -11 4 -28 -4 -22
-2 -29 10 -29 8 0 15 4 15 9 0 4 -3 8 -7 8 -12 0 -12 84 0 92 5 3 21 2 34 -3
14 -5 32 -9 41 -8 9 1 -3 7 -27 15 -30 9 -48 10 -56 4 -9 -7 -14 -6 -18 4 -5
12 2 13 36 10 23 -3 56 -6 72 -7 17 -1 34 -8 38 -14 11 -18 32 -16 48 4 13 15
12 15 -8 5 -28 -15 -30 -15 -30 4 0 9 11 21 24 27 18 8 23 18 23 46 l1 36 23
-26 23 -26 0 28 c0 22 -5 29 -19 29 -21 0 -78 39 -78 52 0 13 64 1 68 -11 2
-6 13 -11 24 -11 19 0 19 1 -5 20 -14 11 -38 20 -54 20 -29 0 -53 15 -53 33 0
5 14 7 30 4 17 -4 30 -2 30 3 0 16 -56 12 -70 -5z m6 -53 c-8 -8 -34 -16 -58
-19 -34 -3 -40 -2 -28 7 12 9 10 10 -12 6 -15 -3 -29 -2 -32 3 -9 13 51 34 78
27 14 -3 28 -1 31 4 5 8 11 7 21 -1 13 -11 13 -14 0 -27z m47 -36 c11 11 20
-49 10 -65 -5 -9 -20 -21 -31 -27 -12 -6 -20 -13 -17 -15 2 -3 -26 -5 -64 -4
-41 0 -68 4 -68 11 0 13 66 34 73 23 3 -5 -3 -9 -13 -10 -16 0 -16 -1 2 -9 31
-13 32 -12 37 20 3 16 2 28 -1 25 -5 -6 -51 35 -51 45 0 4 12 5 28 3 15 -3 36
3 47 11 17 13 21 13 31 1 6 -8 14 -12 17 -9z"/>
<path d="M1178 303 c7 -3 16 -2 19 1 4 3 -2 6 -13 5 -11 0 -14 -3 -6 -6z"/>
<path d="M1287 210 c-14 -17 -15 -20 -2 -20 9 0 18 7 22 15 9 24 -1 27 -20 5z"/>
<path d="M1787 346 c-4 -10 -1 -13 8 -9 8 3 12 9 9 14 -7 12 -11 11 -17 -5z"/>
<path d="M970 345 c0 -8 61 -66 93 -90 15 -11 25 -26 22 -33 -3 -8 0 -10 7 -6
7 5 9 0 6 -14 -4 -13 -2 -20 4 -16 5 3 6 19 3 35 -7 32 10 40 34 17 10 -11 11
-10 6 5 -4 9 -16 17 -26 17 -24 0 -99 30 -99 39 0 4 15 6 33 4 28 -4 25 -1
-21 21 -57 28 -62 29 -62 21z"/>
<path d="M1510 338 c0 -4 5 -8 10 -8 6 0 10 -7 10 -16 0 -8 4 -13 9 -10 14 9
2 43 -15 43 -8 0 -14 -4 -14 -9z"/>
<path d="M2307 339 c7 -7 15 -10 18 -7 3 3 -2 9 -12 12 -14 6 -15 5 -6 -5z"/>
<path d="M2399 332 c-2 -4 -22 -16 -44 -25 -35 -14 -37 -16 -14 -16 28 -1 79
32 68 44 -4 3 -9 2 -10 -3z"/>
<path d="M1735 320 c3 -5 8 -10 11 -10 2 0 4 5 4 10 0 6 -5 10 -11 10 -5 0 -7
-4 -4 -10z"/>
<path d="M1792 298 c-16 -16 -15 -29 1 -22 8 3 14 11 14 19 0 18 0 18 -15 3z"/>
<path d="M2288 303 c7 -3 16 -2 19 1 4 3 -2 6 -13 5 -11 0 -14 -3 -6 -6z"/>
<path d="M1500 280 c0 -5 5 -10 11 -10 5 0 7 5 4 10 -3 6 -8 10 -11 10 -2 0
-4 -4 -4 -10z"/>
<path d="M1735 270 c-3 -5 -1 -10 4 -10 6 0 11 5 11 10 0 6 -2 10 -4 10 -3 0
-8 -4 -11 -10z"/>
<path d="M1680 259 c0 -5 5 -7 10 -4 6 3 10 8 10 11 0 2 -4 4 -10 4 -5 0 -10
-5 -10 -11z"/>
<path d="M542 240 c7 -10 14 -18 15 -16 6 6 -9 36 -18 36 -5 0 -4 -9 3 -20z"/>
<path d="M1708 233 c7 -3 16 -2 19 1 4 3 -2 6 -13 5 -11 0 -14 -3 -6 -6z"/>
<path d="M956 222 c-9 -16 31 -25 51 -12 15 9 15 10 -6 4 -14 -4 -26 -1 -31 6
-5 8 -10 9 -14 2z"/>
<path d="M2190 212 c0 -19 31 -52 66 -70 22 -12 49 -11 61 3 5 4 2 5 -6 0 -11
-6 -13 -4 -8 8 4 12 1 15 -14 12 -15 -3 -19 0 -15 11 4 10 2 13 -6 8 -7 -5 -9
-2 -5 9 4 11 1 15 -13 12 -10 -2 -24 3 -31 11 -16 19 -29 18 -29 -4z m52 -17
c2 3 10 -7 17 -22 10 -24 9 -26 -2 -11 -8 10 -16 15 -19 13 -3 -3 -13 7 -23
22 -18 28 -18 28 2 10 11 -9 22 -15 25 -12z"/>
<path d="M970 169 c0 -5 5 -7 10 -4 6 3 10 8 10 11 0 2 -4 4 -10 4 -5 0 -10
-5 -10 -11z"/>
<path d="M1030 172 c0 -7 -7 -12 -15 -12 -13 0 -13 -3 -3 -20 7 -10 14 -17 17
-14 3 2 11 -6 19 -18 9 -15 11 -17 8 -5 -3 10 -6 25 -6 34 0 10 -6 13 -16 9
-14 -5 -15 -4 -4 9 7 9 10 18 6 22 -3 3 -6 1 -6 -5z"/>
<path d="M424 134 c5 -10 12 -32 16 -49 10 -42 32 -85 42 -85 11 0 10 17 -2
25 -5 3 -17 30 -26 60 -8 30 -20 58 -26 61 -8 5 -9 1 -4 -12z"/>
<path d="M965 130 c10 -11 25 -20 33 -20 9 0 6 7 -11 20 -14 11 -29 20 -33 20
-4 0 1 -9 11 -20z"/>
<path d="M1070 136 c0 -2 7 -7 16 -10 8 -3 12 -2 9 4 -6 10 -25 14 -25 6z"/>
<path d="M2434 126 c-3 -9 -10 -13 -15 -10 -10 6 -12 -9 -2 -19 3 -4 13 2 21
14 8 11 11 23 8 26 -3 3 -8 -2 -12 -11z"/>
<path d="M786 122 c-8 -13 8 -32 21 -24 8 5 7 11 -3 19 -7 7 -15 9 -18 5z"/>
<path d="M2373 113 c-15 -5 -17 -23 -4 -23 5 0 11 7 15 15 3 8 4 15 3 14 -1 0
-8 -3 -14 -6z"/>
<path d="M1080 100 c0 -5 5 -10 11 -10 5 0 7 5 4 10 -3 6 -8 10 -11 10 -2 0
-4 -4 -4 -10z"/>
<path d="M935 90 c-3 -5 -1 -10 4 -10 6 0 11 5 11 10 0 6 -2 10 -4 10 -3 0 -8
-4 -11 -10z"/>
<path d="M1033 70 c1 -19 -3 -43 -7 -52 -5 -10 -4 -18 1 -18 5 0 14 18 19 40
6 22 8 37 3 35 -4 -3 -9 3 -12 12 -2 10 -4 2 -4 -17z"/>
<path d="M1190 91 c0 -5 18 -16 40 -25 49 -19 47 -19 47 -1 0 9 -7 14 -16 12
-9 -2 -28 3 -43 10 -16 7 -28 9 -28 4z"/>
<path d="M2140 83 c8 -3 19 -11 23 -17 6 -7 7 -6 4 4 -2 8 -12 16 -23 17 -13
2 -15 1 -4 -4z"/>
<path d="M764 58 c-3 -13 -13 -31 -22 -40 -14 -16 -13 -18 5 -18 16 0 23 10
31 40 10 42 -1 57 -14 18z"/>
<path d="M974 66 c-3 -9 -12 -16 -19 -16 -8 0 -10 -9 -7 -27 5 -23 7 -24 10
-8 2 11 11 28 20 38 8 9 12 20 9 23 -4 4 -9 -1 -13 -10z"/>
<path d="M1096 71 c-3 -5 0 -21 8 -35 10 -21 15 -23 19 -12 4 9 -1 20 -11 25
-10 6 -12 11 -4 11 6 0 12 5 12 10 0 12 -17 13 -24 1z"/>
<path d="M1170 60 c0 -5 11 -12 25 -16 14 -3 25 -10 25 -15 0 -5 7 -9 15 -9
26 0 16 16 -20 33 -41 20 -45 20 -45 7z"/>
<path d="M2085 50 c-3 -5 -2 -10 4 -10 5 0 13 5 16 10 3 6 2 10 -4 10 -5 0
-13 -4 -16 -10z"/>
<path d="M2305 48 c-16 -6 -36 -17 -43 -25 -7 -7 -18 -13 -24 -13 -6 0 -9 -2
-6 -6 3 -3 32 9 64 25 60 31 63 38 9 19z"/>
<path d="M1315 40 c3 -5 8 -10 11 -10 2 0 4 5 4 10 0 6 -5 10 -11 10 -5 0 -7
-4 -4 -10z"/>
<path d="M1648 43 c7 -3 16 -2 19 1 4 3 -2 6 -13 5 -11 0 -14 -3 -6 -6z"/>
<path d="M1817 43 c-3 -4 1 -17 9 -28 13 -18 14 -18 14 0 0 17 1 17 20 0 20
-18 20 -17 20 9 0 19 -4 25 -12 19 -17 -10 -32 -10 -39 0 -4 5 -9 5 -12 0z"/>
<path d="M1900 35 c-9 -11 -9 -15 -1 -15 7 0 9 -5 6 -10 -3 -5 -1 -10 4 -10 6
0 11 11 11 25 0 29 -3 31 -20 10z"/>
<path d="M2441 45 c1 -19 18 -51 18 -35 0 8 -4 22 -9 30 -5 8 -9 11 -9 5z"/>
<path d="M686 28 c3 -5 10 -6 15 -3 13 9 11 12 -6 12 -8 0 -12 -4 -9 -9z"/>
<path d="M1071 24 c0 -11 3 -14 6 -6 3 7 2 16 -1 19 -3 4 -6 -2 -5 -13z"/>
<path d="M1560 34 c0 -1 6 -7 14 -13 10 -9 15 -8 19 3 4 10 0 14 -14 13 -10
-1 -19 -2 -19 -3z"/>
<path d="M985 20 c3 -5 1 -10 -6 -10 -7 0 -10 -2 -7 -5 7 -8 38 5 38 16 0 5
-7 9 -16 9 -8 0 -12 -4 -9 -10z"/>
<path d="M2163 23 c9 -2 23 -2 30 0 6 3 -1 5 -18 5 -16 0 -22 -2 -12 -5z"/>
<path d="M2366 21 c-3 -5 1 -11 9 -14 9 -4 12 -1 8 9 -6 16 -10 17 -17 5z"/>
</g>
</svg>
