<?xml version="1.0" standalone="no"?>
<!DOCTYPE svg PUBLIC "-//W3C//DTD SVG 20010904//EN"
 "http://www.w3.org/TR/2001/REC-SVG-20010904/DTD/svg10.dtd">
<svg version="1.0" xmlns="http://www.w3.org/2000/svg"
 width="300.000000pt" height="175.000000pt" viewBox="0 0 300.000000 175.000000"
 preserveAspectRatio="xMidYMid meet">
<metadata>
Created by potrace 1.10, written by Peter Selinger 2001-2011
</metadata>
<g transform="translate(0.000000,175.000000) scale(0.100000,-0.100000)"
fill="#000000" stroke="none">
<path d="M2969 1745 c-2 -9 -1 -45 1 -47 1 -2 4 -42 6 -91 2 -62 0 -86 -8 -81
-8 5 -8 3 -2 -7 11 -18 13 -399 1 -399 -4 0 -5 -5 -1 -12 11 -17 12 -108 2
-108 -5 0 -6 -4 -3 -10 3 -5 8 -56 11 -112 3 -57 7 -105 10 -107 2 -2 4 217 4
487 0 321 -3 492 -10 492 -5 0 -10 -2 -11 -5z"/>
<path d="M1500 1724 c-61 -28 -160 -104 -164 -127 -3 -12 -8 -39 -11 -59 -6
-36 -25 -54 -25 -24 0 28 -40 102 -72 132 -60 57 -105 72 -229 77 -42 1 -99
-36 -128 -83 l-17 -28 -23 24 c-33 34 -122 59 -211 59 -94 0 -141 -22 -228
-104 -78 -74 -80 -96 -18 -155 44 -42 76 -98 76 -134 0 -11 7 -28 16 -37 15
-14 14 -18 -10 -42 -22 -22 -26 -35 -24 -70 1 -24 5 -46 10 -49 15 -10 8 -20
-16 -22 -30 -2 -43 33 -18 48 15 8 14 9 -4 10 -12 0 -27 6 -33 14 -10 11 -8
16 7 20 11 4 27 15 36 25 15 17 14 17 -12 13 -17 -2 -34 -14 -44 -32 -16 -27
-16 -29 2 -35 13 -4 16 -12 12 -27 -3 -14 -1 -19 6 -14 7 4 12 1 12 -8 0 -8
13 -21 30 -29 16 -9 28 -11 27 -5 -1 6 4 13 12 16 8 2 11 0 7 -6 -3 -5 1 -12
9 -16 8 -3 12 -12 9 -19 -4 -12 -11 -12 -42 -2 -20 7 -41 10 -47 7 -5 -4 2 -8
17 -10 14 -2 31 -9 38 -16 8 -11 5 -15 -15 -20 -14 -4 -31 -3 -38 1 -7 4 -19
8 -27 8 -8 0 -14 7 -12 15 2 13 0 12 -10 -1 -7 -9 -43 -21 -79 -28 -143 -27
-187 -104 -240 -421 -18 -109 -26 -240 -13 -228 6 6 10 42 19 141 3 33 8 64
12 69 3 6 8 27 10 47 2 19 9 39 16 43 9 6 8 8 -3 8 -9 0 -11 3 -5 8 6 4 10 17
11 30 2 71 5 83 16 76 7 -4 8 -3 4 5 -10 15 11 77 40 121 13 19 24 32 24 28 0
-4 11 4 25 18 14 14 32 23 40 20 7 -2 15 0 17 5 2 5 24 11 50 12 25 1 44 5 41
10 -6 11 10 9 55 -7 38 -14 41 -13 76 11 20 15 36 33 36 42 0 14 2 14 10 1 5
-8 10 -10 10 -5 0 14 63 11 66 -4 1 -6 0 -7 -2 -2 -3 6 -23 3 -50 -6 -24 -8
-42 -18 -39 -22 2 -4 -13 -18 -34 -29 -43 -25 -56 -27 -45 -10 5 7 3 8 -5 3
-9 -5 -9 -11 -3 -17 7 -7 31 1 74 25 l63 35 35 -19 c27 -15 30 -19 15 -20 -11
-1 -24 -1 -30 0 -5 1 -1 -5 9 -14 19 -14 19 -15 1 -35 -10 -11 -24 -20 -32
-20 -7 0 -12 -6 -10 -12 1 -7 -4 -12 -11 -10 -8 1 -11 -2 -8 -7 8 -13 -49
-102 -59 -93 -5 4 -5 2 -1 -5 4 -7 1 -25 -7 -40 -8 -15 -15 -59 -16 -98 -1
-38 -6 -71 -10 -73 -4 -1 -5 -16 -3 -32 2 -17 -3 -52 -12 -79 -17 -52 -13 -86
10 -77 18 7 28 -12 16 -27 -8 -9 -4 -15 12 -23 21 -10 23 -9 18 9 -3 10 1 23
9 28 16 10 29 8 182 -28 105 -24 107 -25 107 -53 0 -16 -4 -40 -9 -53 -12 -31
4 -54 40 -61 14 -2 48 -12 75 -21 31 -11 78 -16 131 -16 52 1 84 -3 89 -11 4
-6 3 -8 -3 -5 -5 3 -22 3 -37 -1 l-28 -8 23 -19 c12 -11 19 -14 14 -6 -6 11
-4 13 9 8 10 -4 15 -3 11 3 -8 13 8 13 21 0 6 -6 8 5 6 31 -4 34 -7 39 -24 33
-43 -13 -192 -7 -223 10 -16 9 -40 16 -51 16 -27 0 -49 25 -37 42 4 7 9 24 9
38 1 14 2 31 3 38 2 19 62 14 99 -8 19 -12 31 -16 28 -11 -10 15 2 18 102 26
91 6 93 6 83 -13 -7 -14 -18 -19 -33 -16 -15 3 -18 2 -8 -3 18 -9 26 -53 10
-53 -6 0 -43 7 -83 15 -40 8 -84 16 -99 17 -15 1 -30 8 -32 15 -3 7 -18 12
-33 12 -21 -1 -23 -3 -8 -6 11 -3 23 -10 26 -15 6 -10 175 -47 217 -48 16 0
22 -6 22 -22 0 -36 14 -9 16 30 2 45 20 92 34 92 8 0 8 -6 0 -20 -12 -22 -9
-190 3 -190 4 0 7 -8 7 -17 0 -15 2 -16 10 -3 5 8 17 15 27 15 10 0 17 5 16
11 -1 6 5 11 13 11 9 0 14 -11 14 -29 0 -18 -5 -28 -15 -28 -8 0 -15 5 -15 10
0 6 -7 10 -16 10 -14 0 -15 -2 -3 -17 12 -15 12 -16 -2 -11 -9 4 -21 2 -26 -3
-12 -12 -93 -20 -93 -9 0 5 6 11 13 13 7 3 5 6 -5 6 -10 1 -18 7 -18 14 0 7
-15 13 -37 13 -61 3 -194 32 -219 49 -13 8 -24 22 -24 30 0 8 -5 15 -11 15 -7
0 -8 -7 -4 -17 11 -31 10 -38 -5 -35 -11 3 -9 -2 5 -18 19 -21 71 -50 97 -54
7 -1 18 -5 24 -8 5 -4 29 -13 52 -21 80 -28 26 9 -63 42 -47 18 -88 37 -91 43
-5 8 1 9 17 4 42 -12 172 -43 212 -50 27 -5 41 -14 49 -31 9 -21 18 -24 50
-23 21 1 38 5 38 10 0 5 11 6 24 2 13 -3 27 -1 30 5 11 17 26 13 19 -6 -4 -11
-3 -14 5 -9 7 4 12 13 12 20 0 17 80 29 97 14 14 -11 12 10 -6 52 l-10 25 -2
-25 c-1 -18 -3 -20 -6 -7 -2 9 -8 15 -13 12 -5 -3 -7 -12 -3 -20 7 -20 -7 -19
-24 3 -13 16 -13 15 -7 -7 4 -16 3 -21 -5 -17 -6 4 -11 22 -11 39 0 22 3 28 9
19 7 -12 14 -11 39 2 44 23 52 20 52 -18 0 -22 6 -36 16 -40 12 -4 15 -2 10 9
-3 9 0 15 9 15 7 0 17 5 21 12 5 7 0 9 -14 6 -16 -5 -23 1 -31 25 -6 17 -9 32
-6 35 10 10 34 -8 38 -30 3 -17 5 -14 6 10 2 53 18 28 20 -30 1 -65 11 -114
20 -100 6 11 0 101 -18 272 -7 58 -10 148 -8 200 6 137 -33 330 -70 345 -18 6
-16 -23 2 -41 15 -15 10 -48 -6 -38 -14 8 -11 26 4 18 7 -4 9 -3 4 2 -5 5 -14
9 -20 9 -7 0 -13 9 -13 20 -1 11 -2 29 -3 40 -1 16 -3 17 -10 6 -5 -8 -21 -15
-36 -17 -23 -2 -25 -1 -13 14 12 15 11 16 -4 3 -10 -7 -15 -18 -11 -24 3 -6 1
-7 -6 -3 -6 4 -17 3 -24 -2 -7 -6 -34 -13 -62 -17 -54 -8 -78 -21 -69 -37 4
-6 -5 -2 -20 7 -14 9 -33 15 -41 11 -8 -3 -15 -1 -15 5 0 7 -12 9 -30 7 -34
-5 -45 4 -56 47 -7 27 -6 29 9 16 10 -7 17 -10 17 -5 0 5 4 3 9 -4 4 -7 25
-17 46 -22 23 -5 34 -5 28 1 -5 5 -20 11 -33 14 -25 5 -40 15 -22 15 7 0 12 4
12 10 0 5 -6 7 -14 4 -8 -3 -17 0 -21 5 -3 6 -11 8 -17 5 -6 -4 -8 -2 -5 3 4
6 -1 17 -10 24 -15 13 -16 11 -10 -12 9 -37 -19 -62 -39 -34 -8 10 -14 22 -14
27 0 14 19 8 29 -9 10 -17 10 -17 11 -1 0 9 -4 19 -9 22 -5 3 -14 28 -21 56
l-12 50 -20 -25 c-14 -18 -18 -33 -13 -55 4 -17 10 -30 15 -30 4 0 13 -13 19
-30 5 -16 17 -30 26 -30 19 0 75 -61 68 -73 -3 -5 -9 -4 -13 3 -4 7 -11 -13
-14 -44 -4 -31 -12 -56 -17 -56 -5 0 -9 -5 -9 -11 0 -6 9 -8 20 -4 14 4 20 2
21 -9 4 -51 39 -93 39 -48 0 23 30 52 53 52 25 0 20 18 -5 22 -15 2 -24 11
-26 26 -3 23 -4 23 -23 6 -22 -20 -25 -39 -5 -31 21 8 27 -18 6 -31 -14 -9
-19 -6 -29 14 -17 38 -13 63 14 89 31 32 66 32 102 0 l28 -25 -42 6 c-29 5
-43 3 -43 -5 0 -6 11 -11 24 -11 25 0 43 -30 31 -50 -3 -5 3 -10 15 -10 19 0
21 4 16 47 -6 59 7 87 33 74 10 -6 24 -24 31 -41 7 -16 16 -30 21 -30 5 0 1
15 -8 34 -9 19 -13 42 -9 52 6 15 13 8 36 -34 32 -55 39 -82 17 -64 -10 9 -17
4 -30 -18 -18 -29 -18 -29 12 -45 35 -17 51 -38 24 -29 -17 5 -17 5 0 -6 9 -6
15 -15 12 -21 -3 -5 1 -6 9 -3 8 3 19 -3 26 -15 8 -15 8 -21 0 -21 -6 0 -10
-8 -9 -18 3 -30 -1 -43 -10 -38 -4 3 -16 -3 -26 -14 -11 -12 -13 -20 -6 -20 8
0 8 -5 -1 -20 -23 -37 -127 -60 -258 -55 -63 2 -118 4 -122 4 -5 1 -8 13 -8
27 0 24 3 26 33 21 66 -12 147 -11 160 2 10 10 -3 12 -63 11 -108 -3 -130 -1
-130 10 0 6 8 10 18 10 14 0 15 2 2 10 -12 8 -10 10 8 10 13 0 21 -3 19 -7 -3
-5 8 -8 24 -8 16 0 29 3 29 7 0 4 27 10 60 14 33 4 63 11 66 16 4 6 -8 7 -27
4 -19 -3 -70 -9 -114 -12 -74 -7 -79 -6 -66 9 7 10 10 17 7 17 -4 0 7 20 25
45 18 25 36 45 40 45 4 0 6 7 5 15 -2 16 -15 21 -17 8 -1 -5 -15 -28 -31 -51
-23 -34 -33 -41 -42 -32 -8 9 -8 14 2 17 7 3 11 20 10 41 l-1 37 -4 -34 c-3
-26 -7 -31 -14 -20 -6 10 -9 5 -9 -18 0 -17 4 -34 9 -37 5 -3 4 -29 -1 -58 -5
-29 -8 -67 -6 -85 2 -18 1 -33 -3 -33 -4 0 -5 -9 -2 -21 6 -20 5 -20 -33 -4
-49 20 -294 71 -331 68 -9 0 -9 7 2 27 17 33 34 161 27 212 -3 28 4 55 26 103
17 36 35 64 39 63 14 -4 73 21 73 31 0 6 -16 1 -35 -10 -30 -18 -35 -19 -35
-5 0 21 128 156 160 168 24 10 24 11 5 19 -14 7 -9 8 20 4 23 -2 32 -1 22 3
-15 6 -12 11 20 26 38 18 38 18 20 -2 -15 -16 -16 -20 -3 -25 24 -9 33 15 20
53 -11 32 -12 33 -19 11 -10 -31 -60 -51 -99 -40 -40 12 -44 11 -25 -4 17 -13
22 -47 7 -47 -13 0 -78 28 -78 34 0 2 16 0 36 -6 42 -11 55 -5 24 12 -18 10
-19 14 -8 28 10 13 10 14 0 8 -7 -4 -19 -3 -27 4 -9 7 -15 8 -20 0 -4 -7 -12
-7 -26 0 -10 6 -19 8 -19 4 0 -3 -7 -1 -15 6 -8 7 -15 18 -15 24 0 6 4 4 10
-4 5 -8 12 -11 16 -7 4 4 17 -1 28 -10 l21 -18 -19 23 c-16 18 -17 25 -7 35
10 9 18 5 39 -20 22 -25 31 -29 45 -22 9 6 17 18 17 27 0 11 -3 13 -8 6 -11
-17 -40 -13 -59 9 -18 19 -17 19 14 13 47 -11 99 3 129 33 26 25 27 25 22 3
-4 -12 -2 -20 3 -16 5 3 9 -4 9 -16 0 -19 -4 -21 -30 -15 -27 6 -30 4 -30 -17
0 -13 4 -28 8 -34 9 -14 44 -14 39 0 -2 6 -13 10 -23 8 -18 -3 -18 -3 1 12 11
8 27 16 36 16 13 0 15 7 10 38 -8 44 5 150 19 168 6 6 13 35 17 63 3 28 10 54
14 57 5 3 9 0 9 -5 0 -6 5 -11 12 -11 9 0 9 3 0 12 -16 16 -15 39 2 32 16 -6
40 52 29 69 -4 6 -12 -7 -19 -29 -6 -21 -12 -32 -13 -24 -1 9 -9 4 -22 -15
-12 -17 -18 -21 -14 -10 4 11 10 28 12 37 3 10 8 16 12 13 9 -5 7 32 -1 41
-17 17 -42 -66 -74 -246 -15 -84 -21 -98 -48 -120 -21 -17 -26 -18 -16 -5 14
17 13 18 -5 11 -11 -5 -38 -13 -60 -18 -38 -9 -41 -8 -67 23 -16 18 -28 39
-28 46 0 7 -4 13 -10 13 -6 0 -6 -9 0 -26 14 -35 12 -42 -4 -19 -13 20 -29 95
-20 95 3 0 9 -10 14 -22 6 -17 9 -19 9 -6 1 9 -11 28 -25 42 -20 18 -28 37
-32 75 -2 28 -8 49 -12 46 -4 -3 -10 4 -13 15 -3 11 -2 20 2 20 4 0 7 10 8 21
3 34 30 55 91 73 102 28 212 25 295 -9 11 -4 17 -3 17 5 0 7 18 35 40 62 22
28 37 54 34 59 -3 5 -1 9 5 9 6 0 21 11 35 25 14 14 35 25 48 24 l23 0 -23
-10 c-13 -5 -21 -12 -18 -17 2 -4 -9 -17 -25 -27 -16 -11 -29 -24 -29 -29 0
-5 6 -3 13 3 8 6 17 9 20 6 4 -3 5 -2 2 2 -9 11 37 36 72 39 30 2 37 -2 54
-31 13 -21 26 -32 34 -29 11 5 7 14 -15 37 -23 25 -27 33 -14 35 8 2 23 -6 33
-17 10 -12 22 -21 27 -21 15 0 84 -60 84 -73 0 -6 -14 2 -32 19 -17 16 -27 22
-23 14 5 -8 19 -23 32 -33 12 -10 22 -23 20 -30 -1 -6 3 -11 9 -12 12 0 58
-52 67 -75 4 -12 6 -12 6 2 1 9 10 20 22 23 21 7 21 16 3 77 -3 10 2 19 15 23
11 3 28 19 38 35 9 16 20 27 24 25 3 -3 18 7 32 20 l25 25 -5 -47 c-5 -44 -26
-85 -42 -80 -3 1 -15 -7 -27 -17 -17 -14 -20 -25 -15 -49 6 -26 3 -34 -13 -42
-11 -5 -22 -17 -24 -25 -4 -12 -1 -11 15 3 20 17 20 16 22 -55 1 -40 6 -77 11
-82 5 -5 6 1 3 14 -5 17 -3 21 6 15 7 -4 11 -18 8 -31 -3 -15 0 -24 8 -24 7 0
15 -7 18 -14 4 -11 1 -13 -10 -9 -13 5 -12 0 6 -25 36 -51 37 -73 5 -171 -3
-10 -8 -11 -15 -4 -8 8 -7 17 1 33 11 20 10 21 -10 10 -20 -11 -21 -13 -5 -37
12 -18 14 -28 6 -36 -14 -14 -14 -37 -1 -37 6 0 9 6 8 13 -2 6 3 11 10 9 6 -1
12 6 12 15 0 29 20 93 29 93 5 0 11 -8 14 -17 2 -10 8 -26 12 -36 5 -13 3 -16
-8 -11 -16 6 -24 -14 -42 -101 -10 -44 12 -11 26 40 11 37 12 38 20 17 7 -17
14 -21 32 -17 24 6 67 -28 53 -43 -4 -4 -14 2 -22 12 -7 11 -17 16 -21 12 -4
-4 -1 -11 7 -16 8 -5 15 -24 15 -42 0 -27 4 -34 23 -36 12 -2 22 1 22 7 0 6 5
10 12 8 6 -1 17 9 24 23 7 13 19 29 27 35 8 5 14 15 14 20 0 6 15 18 34 27 19
10 27 18 19 18 -9 0 -27 -8 -40 -17 -35 -25 -93 -53 -98 -49 -2 2 -5 10 -6 18
-10 50 -21 67 -46 78 -24 10 -32 24 -50 82 -31 101 -19 105 26 11 21 -46 43
-83 47 -83 5 0 5 5 2 10 -4 6 -8 26 -11 44 l-4 33 59 -1 c44 0 58 -3 54 -13
-11 -27 13 -10 50 35 20 26 37 55 37 64 0 38 18 24 24 -19 13 -95 13 -94 -67
-137 -61 -33 -125 -91 -113 -103 5 -6 86 37 86 46 0 5 14 11 31 13 22 4 34 -1
45 -16 8 -11 14 -17 14 -12 0 4 14 -4 31 -18 32 -27 75 -43 86 -32 4 3 -1 6
-10 6 -9 0 -44 21 -77 46 -59 45 -72 72 -41 82 9 3 11 0 6 -9 -5 -8 -5 -11 0
-7 4 4 14 3 20 -2 16 -13 42 -4 50 18 5 13 3 13 -14 -2 -39 -36 -49 1 -17 63
20 37 29 39 50 6 19 -29 20 -39 4 -29 -6 4 -8 3 -5 -4 5 -7 15 -7 32 1 24 12
24 12 3 17 -12 3 -22 13 -24 23 -2 16 -1 16 28 0 16 -10 34 -26 40 -37 9 -17
7 -18 -17 -14 -23 5 -25 4 -13 -9 15 -14 48 -8 48 8 0 5 17 -2 38 -15 32 -20
49 -24 98 -21 32 2 65 5 72 6 19 4 82 77 83 97 0 9 2 26 4 36 2 11 0 27 -5 35
-8 14 -9 14 -10 -2 0 -10 -8 -21 -17 -24 -10 -4 -28 -19 -40 -34 -29 -34 -86
-61 -121 -57 -19 2 -26 -1 -24 -11 2 -11 0 -12 -10 -4 -7 6 -15 11 -18 11 -23
0 -62 17 -76 33 -9 10 -23 19 -31 19 -7 0 -13 6 -13 14 0 15 -16 16 -37 3 -17
-10 -38 1 -53 28 -10 18 -10 34 -2 66 6 23 8 48 5 55 -3 8 0 14 6 14 17 0 13
56 -9 140 -19 70 -19 76 -3 118 14 38 20 43 41 39 17 -3 33 4 58 29 21 21 43
34 59 34 15 0 24 4 20 9 -9 16 -46 3 -76 -25 -16 -16 -32 -23 -40 -19 -8 5
-10 4 -5 -3 5 -8 -1 -12 -18 -12 -28 0 -56 -33 -56 -65 0 -16 -3 -14 -19 11
-24 40 -144 115 -190 120 -20 2 -52 -4 -71 -12z m146 -35 c53 -29 83 -53 84
-63 0 -5 -10 0 -23 12 -13 12 -28 22 -33 22 -18 0 -64 25 -69 38 -6 16 -2 15
41 -9z m-45 -15 c8 -9 32 -28 54 -42 22 -13 52 -36 68 -50 15 -14 27 -20 27
-13 0 22 17 2 23 -26 3 -16 9 -36 12 -45 4 -10 3 -18 -2 -18 -10 0 -34 60 -28
70 2 4 -1 7 -8 8 -7 0 -31 4 -54 8 -23 3 -52 4 -65 1 -21 -6 -23 -11 -21 -54
4 -61 7 -69 32 -76 l21 -5 -20 25 c-40 51 -18 93 49 93 37 0 53 -22 77 -105
31 -105 25 -172 -18 -187 -4 -2 -9 -14 -11 -28 -5 -33 -49 -55 -117 -58 -30
-2 -58 -9 -62 -15 -11 -16 -38 19 -38 50 0 13 -4 23 -9 23 -20 0 -40 32 -37
58 2 15 1 20 -1 12 -3 -8 -10 -19 -15 -25 -8 -7 -8 -6 -3 4 4 7 3 16 -3 20
-23 14 -33 161 -12 186 17 20 76 38 101 30 18 -6 20 -13 17 -51 -2 -27 1 -43
7 -41 16 6 7 90 -10 100 -9 4 -13 12 -10 18 11 17 -37 9 -71 -12 -19 -11 -34
-16 -34 -10 0 5 5 13 10 16 6 3 10 11 10 18 0 6 -12 -6 -26 -26 -27 -40 -44
-45 -24 -7 17 32 43 60 51 55 8 -6 27 39 31 75 5 37 84 54 109 24z m-964 -6
c7 -6 24 -8 38 -6 14 3 28 1 31 -4 3 -4 10 -6 15 -2 5 3 9 2 8 -3 -4 -22 3
-25 17 -7 8 10 13 14 10 8 -3 -7 4 -11 20 -11 14 0 33 -8 42 -17 15 -15 14
-16 -8 -16 -23 0 -23 0 -4 -14 13 -10 23 -11 32 -4 21 18 22 4 2 -27 -11 -17
-20 -27 -21 -22 -1 4 -2 13 -3 20 -1 6 -10 11 -21 9 -15 -2 -17 0 -6 6 22 15
-39 19 -161 11 -61 -5 -114 -13 -118 -19 -4 -6 -14 -8 -23 -4 -9 3 -17 1 -17
-4 0 -6 -12 -12 -27 -14 -26 -3 -28 -7 -28 -46 0 -46 -20 -57 -46 -26 -11 14
-10 18 6 30 10 8 15 14 10 14 -5 0 -17 -8 -28 -17 -19 -18 -20 -18 -3 15 9 17
19 32 22 32 3 0 2 -5 -2 -12 -4 -7 -3 -8 4 -4 7 4 12 13 12 21 0 19 57 58 75
51 8 -3 17 -1 20 4 4 6 -2 10 -12 10 -31 1 26 38 72 48 60 12 78 12 92 0z
m263 -32 c0 -2 -8 -10 -17 -17 -16 -13 -17 -12 -4 4 13 16 21 21 21 13z m-465
-106 c3 -5 1 -10 -4 -10 -6 0 -11 5 -11 10 0 6 2 10 4 10 3 0 8 -4 11 -10z
m975 -125 l-7 -60 -2 56 c0 31 2 59 6 62 10 11 10 7 3 -58z m389 -4 c-15 -5
-22 6 -14 19 6 9 10 9 16 -1 5 -8 4 -15 -2 -18z m-1299 -231 c0 -3 14 -14 31
-24 17 -10 28 -21 25 -24 -4 -3 -11 -1 -17 5 -6 6 -17 9 -23 7 -7 -3 -18 7
-25 22 -6 15 -15 24 -18 20 -4 -3 -1 -12 5 -18 7 -7 12 -17 12 -22 0 -6 -7 -2
-16 9 -8 11 -18 19 -22 17 -15 -7 -12 17 4 33 17 16 18 16 31 -1 7 -10 13 -20
13 -24z m1724 -8 c-8 -19 -14 -37 -14 -39 0 -3 -7 -2 -16 1 -9 4 -24 0 -33 -8
-10 -9 -38 -18 -64 -20 -26 -3 -51 -8 -56 -10 -5 -3 -14 1 -21 9 -11 13 -10
14 3 10 8 -4 18 -2 21 3 3 6 14 8 24 5 21 -5 112 34 112 48 0 5 7 6 15 3 10
-4 15 0 15 13 0 11 6 20 14 20 13 0 13 -5 0 -35z m-1744 -46 c0 -7 3 -6 9 2 6
11 10 10 15 -4 6 -16 8 -16 16 -4 6 8 10 11 10 5 0 -18 -17 -38 -24 -27 -3 6
-15 8 -26 5 -11 -3 -20 -1 -20 5 0 6 -3 18 -6 26 -5 12 -2 15 10 10 9 -3 16
-11 16 -18z m1710 0 c0 -3 -4 -8 -10 -11 -5 -3 -10 -1 -10 4 0 6 5 11 10 11 6
0 10 -2 10 -4z m-455 -56 c-3 -5 -12 -10 -18 -10 -7 0 -6 4 3 10 19 12 23 12
15 0z m-205 -35 c0 -8 -4 -15 -10 -15 -5 0 -10 7 -10 15 0 8 5 15 10 15 6 0
10 -7 10 -15z m127 -73 c-10 -10 -17 -24 -17 -30 0 -17 -17 -15 -23 2 -3 8 4
21 16 30 30 21 43 20 24 -2z m-834 -55 c-4 -6 -10 -2 -14 9 -12 31 -9 40 6 20
8 -10 11 -24 8 -29z m785 15 c2 -7 -3 -12 -12 -12 -9 0 -16 7 -16 16 0 17 22
14 28 -4z m-354 -116 c6 2 21 -12 34 -31 12 -19 27 -34 34 -32 20 4 40 -73 45
-175 5 -86 4 -98 -11 -98 -18 0 -22 -16 -5 -22 7 -2 14 -36 17 -79 4 -62 1
-84 -17 -126 -14 -31 -32 -55 -47 -62 -15 -7 -22 -16 -18 -23 5 -7 0 -9 -14
-6 -12 3 -23 1 -25 -5 -2 -6 -22 -11 -45 -11 -23 -1 -42 -5 -42 -9 0 -5 -6 -2
-14 5 -8 8 -13 29 -13 46 2 34 17 45 17 12 0 -11 4 -20 9 -20 5 0 5 16 -1 38
-5 20 -9 45 -9 54 0 27 -7 21 -19 -14 -10 -32 -10 -32 -4 7 6 45 33 84 35 50
0 -11 2 -29 5 -40 2 -11 7 -41 10 -67 4 -26 11 -45 16 -42 4 3 6 10 3 15 -4 5
1 9 9 9 20 0 21 -2 -9 62 -14 29 -25 63 -25 74 0 20 -3 21 -47 13 -132 -22
-333 -18 -333 7 0 12 42 20 73 15 18 -3 193 -2 209 1 10 2 21 7 24 11 11 11
36 8 29 -3 -3 -6 0 -10 8 -10 8 0 14 8 13 17 0 10 4 18 9 18 6 0 16 4 23 8 6
5 12 4 12 -2 0 -5 -5 -11 -10 -13 -7 -2 -8 -19 -4 -45 3 -24 11 -40 16 -37 5
3 8 0 7 -7 -2 -20 23 -78 37 -83 8 -3 7 6 -3 26 -13 25 -13 32 -2 39 8 5 19 9
25 9 7 0 27 17 45 38 18 20 37 36 42 34 5 -1 6 2 3 7 -4 5 -2 12 4 16 5 3 10
13 10 22 0 9 -18 -8 -41 -36 -41 -51 -79 -81 -79 -62 0 5 20 33 45 62 46 54
53 76 34 111 -8 15 -8 19 0 14 6 -4 11 0 11 9 0 9 -4 13 -10 10 -6 -4 -10 5
-10 20 0 14 3 24 8 22 4 -3 8 6 8 19 2 21 0 23 -14 12 -14 -11 -15 -10 -9 6 6
16 5 17 -8 6 -11 -9 -15 -9 -15 -1 0 7 -7 19 -15 27 -8 9 -15 21 -15 27 0 7 7
3 15 -7 8 -11 15 -16 15 -10 -1 15 -30 49 -30 34 0 -7 -3 -11 -6 -8 -3 4 -1
15 5 26 8 15 7 23 -5 33 -8 7 -22 25 -30 41 -8 15 -19 28 -25 28 -6 0 -1 -14
11 -30 12 -17 20 -38 18 -47 -2 -11 -14 2 -35 36 -37 59 -39 66 -18 57 8 -3
15 -1 15 4 0 6 4 10 9 10 11 0 71 -86 71 -101 0 -5 4 -9 9 -9 5 0 12 -7 15
-16 3 -8 2 -12 -4 -9 -15 9 -12 -2 7 -33 21 -32 34 -43 45 -36 4 3 -3 17 -16
31 -24 26 -25 63 0 63 18 0 27 17 13 26 -8 4 -9 3 -5 -4 4 -7 4 -12 -1 -12 -4
0 -21 20 -36 45 -37 58 -47 58 -13 0 37 -62 16 -57 -23 6 -32 52 -40 72 -20
52 6 -6 17 -10 23 -7z m-30 -139 c-3 -8 2 -20 11 -27 8 -7 15 -20 15 -30 0
-10 7 -23 15 -30 8 -7 12 -16 9 -21 -3 -5 2 -6 10 -3 9 3 16 2 16 -2 -1 -15
-27 -44 -33 -37 -4 3 -7 0 -7 -8 0 -8 -3 -23 -6 -35 -4 -14 -1 -21 10 -21 10
0 16 9 16 24 0 29 16 30 23 1 3 -13 8 -32 12 -43 5 -16 2 -21 -14 -21 -11 0
-18 3 -16 6 2 4 -2 7 -10 7 -10 0 -13 -8 -10 -24 5 -31 -4 -55 -19 -50 -6 3
-12 -6 -13 -19 -4 -45 -6 -54 -15 -54 -4 0 -8 7 -8 15 0 8 -5 24 -12 35 -10
15 -9 22 4 37 10 12 13 25 8 38 -5 11 -9 29 -9 40 1 15 3 12 11 -9 8 -21 13
-25 19 -15 5 8 9 19 9 24 0 6 -5 3 -10 -5 -19 -30 -11 13 10 53 11 20 20 43
20 50 0 7 -9 18 -20 25 -11 7 -20 18 -20 26 0 7 -9 21 -20 31 -32 29 -25 46
22 54 4 0 5 -5 2 -12z m144 -478 c-18 -12 -22 14 -6 43 l13 23 3 -29 c2 -16
-2 -32 -10 -37z"/>
<path d="M1515 1590 c3 -5 11 -10 16 -10 6 0 7 5 4 10 -3 6 -11 10 -16 10 -6
0 -7 -4 -4 -10z"/>
<path d="M1640 1510 c-10 -6 -3 -7 24 -3 28 4 37 3 32 -5 -10 -17 -1 -15 14 3
11 13 8 15 -21 15 -19 0 -41 -5 -49 -10z"/>
<path d="M1474 1474 c-18 -14 -18 -15 6 -8 31 8 50 24 29 24 -8 0 -24 -7 -35
-16z"/>
<path d="M1516 1462 c-3 -5 1 -9 9 -9 8 0 12 4 9 9 -3 4 -7 8 -9 8 -2 0 -6 -4
-9 -8z"/>
<path d="M1619 1415 c-3 -2 -19 -5 -36 -7 -18 -1 -29 -6 -27 -10 3 -4 21 -6
40 -3 19 2 34 0 34 -6 0 -6 -10 -9 -23 -7 -14 1 -33 -7 -48 -22 -20 -21 -24
-34 -24 -90 0 -66 11 -102 24 -81 5 7 17 8 39 2 17 -5 34 -6 37 -2 2 5 16 9
30 9 25 0 70 30 60 40 -3 3 0 11 6 18 7 9 7 18 0 31 -10 17 -10 16 -11 -4 0
-12 -5 -25 -10 -28 -6 -4 -7 -12 -4 -18 4 -7 4 -9 -1 -5 -4 4 -15 2 -23 -4
-20 -17 -61 -18 -98 -3 -28 12 -32 18 -35 58 -2 25 0 43 4 40 4 -3 22 2 40 10
18 8 51 17 74 20 37 4 42 3 47 -19 6 -23 26 -25 26 -3 0 6 -4 8 -9 5 -5 -3
-12 5 -15 19 -4 14 -11 25 -16 25 -5 0 -21 5 -37 11 -26 10 -27 12 -8 19 18 8
17 9 -6 9 -14 1 -28 -1 -30 -4z m51 -45 c11 -7 7 -10 -18 -10 -18 0 -47 -7
-65 -16 l-32 -17 19 21 c16 18 34 26 71 30 6 1 17 -3 25 -8z"/>
<path d="M1635 1320 c-22 -10 -35 -19 -29 -19 6 -1 16 -11 22 -23 9 -19 11
-20 11 -5 1 11 5 15 13 11 7 -5 8 -3 4 5 -5 7 0 21 10 32 20 23 20 23 -31 -1z"/>
<path d="M1510 1291 c0 -5 5 -13 10 -16 6 -3 10 -2 10 4 0 5 -4 13 -10 16 -5
3 -10 2 -10 -4z"/>
<path d="M535 1640 c-4 -6 -16 -8 -27 -4 -14 4 -18 2 -14 -5 11 -17 56 -14 56
4 0 17 -6 19 -15 5z"/>
<path d="M663 1613 c20 -2 54 -2 75 0 20 2 3 4 -38 4 -41 0 -58 -2 -37 -4z"/>
<path d="M573 1603 c9 -2 23 -2 30 0 6 3 -1 5 -18 5 -16 0 -22 -2 -12 -5z"/>
<path d="M518 1593 c6 -2 18 -2 25 0 6 3 1 5 -13 5 -14 0 -19 -2 -12 -5z"/>
<path d="M1340 305 c0 -8 2 -15 4 -15 2 0 6 7 10 15 3 8 1 15 -4 15 -6 0 -10
-7 -10 -15z"/>
<path d="M1259 237 c6 -8 7 -18 3 -22 -4 -5 -1 -5 6 -1 18 10 15 36 -4 36 -13
0 -14 -3 -5 -13z"/>
<path d="M86 1717 c3 -10 9 -15 12 -12 3 3 0 11 -7 18 -10 9 -11 8 -5 -6z"/>
<path d="M1990 1710 c0 -5 7 -10 16 -10 8 0 12 5 9 10 -3 6 -10 10 -16 10 -5
0 -9 -4 -9 -10z"/>
<path d="M2077 1709 c-9 -5 -21 -8 -26 -4 -5 3 -12 1 -16 -4 -3 -6 15 -10 44
-9 27 0 58 -3 68 -6 13 -4 20 -2 20 6 0 9 -13 12 -40 9 -27 -2 -38 0 -33 8 9
13 6 13 -17 0z"/>
<path d="M144 1689 c-3 -6 -2 -15 3 -20 5 -5 9 -1 10 11 2 22 -2 25 -13 9z"/>
<path d="M206 1673 c-6 -14 -5 -15 5 -6 7 7 10 15 7 18 -3 3 -9 -2 -12 -12z"/>
<path d="M312 1674 c-7 -8 -8 -14 -3 -14 10 0 25 19 20 25 -2 1 -10 -3 -17
-11z"/>
<path d="M1046 1662 c6 -4 17 -21 24 -39 8 -17 18 -29 22 -27 4 3 8 0 8 -7 0
-7 2 -10 5 -8 10 10 -38 89 -54 89 -10 0 -12 -3 -5 -8z"/>
<path d="M1910 1660 c-9 -6 -10 -10 -3 -10 6 0 15 5 18 10 8 12 4 12 -15 0z"/>
<path d="M2180 1650 c0 -5 -3 -9 -7 -9 -20 3 -30 -2 -30 -17 0 -15 1 -15 12
-1 6 9 16 12 23 8 17 -10 44 -80 36 -94 -5 -9 -4 -9 5 -1 9 8 7 24 -9 67 -20
54 -30 69 -30 47z"/>
<path d="M976 1635 c-11 -8 -14 -15 -7 -15 7 0 10 -4 6 -10 -3 -5 -13 -7 -23
-4 -14 5 -15 4 -2 -5 13 -10 13 -12 0 -21 -10 -6 -11 -10 -3 -10 13 0 46 44
49 67 3 16 4 16 -20 -2z"/>
<path d="M1440 1640 c0 -7 -7 -10 -15 -6 -9 3 -15 0 -15 -8 0 -17 -35 -48 -43
-39 -4 3 -7 -6 -7 -22 0 -23 2 -26 15 -15 8 7 15 19 15 26 0 8 3 13 8 13 20
-3 31 3 46 25 10 15 12 27 6 31 -6 3 -10 1 -10 -5z"/>
<path d="M186 1622 c-3 -5 1 -9 9 -9 8 0 15 4 15 9 0 4 -4 8 -9 8 -6 0 -12 -4
-15 -8z"/>
<path d="M310 1621 c0 -6 4 -13 10 -16 6 -3 7 1 4 9 -7 18 -14 21 -14 7z"/>
<path d="M2115 1620 c3 -5 8 -10 11 -10 2 0 4 5 4 10 0 6 -5 10 -11 10 -5 0
-7 -4 -4 -10z"/>
<path d="M1122 1608 c3 -7 13 -15 24 -17 16 -3 17 -1 5 13 -16 19 -34 21 -29
4z"/>
<path d="M906 1598 c3 -5 10 -6 15 -3 13 9 11 12 -6 12 -8 0 -12 -4 -9 -9z"/>
<path d="M32 1588 c5 -15 28 -23 28 -10 0 5 -7 13 -16 16 -10 4 -14 1 -12 -6z"/>
<path d="M871 1559 c-7 -12 -10 -23 -8 -26 3 -3 11 5 17 17 15 28 8 35 -9 9z"/>
<path d="M1139 1535 c9 -24 20 -47 24 -51 12 -12 8 -22 -9 -20 -20 3 -29 20
-38 69 -4 21 -11 35 -17 32 -5 -4 -7 -11 -4 -16 4 -5 1 -9 -6 -9 -8 0 -6 -5 4
-13 16 -11 16 -15 1 -60 -14 -42 -18 -46 -33 -35 -14 11 -14 11 -4 -3 7 -8 10
-28 8 -45 -12 -72 -17 -97 -22 -112 -3 -10 1 -8 12 6 9 12 19 48 22 80 4 31
15 75 25 97 l19 40 -5 -35 c-3 -19 -16 -84 -30 -145 -14 -60 -25 -116 -25
-124 -1 -11 -4 -11 -18 0 -17 13 -17 12 -3 -4 12 -17 12 -20 -3 -28 -9 -6 -17
-18 -16 -27 0 -14 2 -13 9 3 5 11 9 14 9 8 2 -32 19 -8 31 42 12 50 29 73 31
43 1 -7 4 -2 8 12 5 16 3 28 -5 32 -22 14 28 192 51 181 13 -6 33 10 28 23 -8
20 19 14 35 -9 8 -10 11 -26 7 -35 -5 -13 -3 -14 6 -5 18 18 -25 100 -63 119
-24 12 -28 18 -17 25 11 7 9 9 -8 9 -21 0 -21 0 -4 -45z m43 -12 c23 -20 23
-32 1 -29 -10 2 -18 7 -18 12 0 5 -4 15 -8 22 -12 17 3 15 25 -5z"/>
<path d="M987 1563 c-4 -3 -7 -13 -7 -22 1 -13 3 -13 11 2 11 19 8 33 -4 20z"/>
<path d="M1866 1562 c-3 -5 1 -9 9 -9 8 0 15 4 15 9 0 4 -4 8 -9 8 -6 0 -12
-4 -15 -8z"/>
<path d="M40 1546 c0 -9 -4 -14 -10 -11 -5 3 -10 2 -10 -3 0 -5 11 -9 25 -9
22 0 24 2 13 16 -7 9 -14 18 -15 20 -2 2 -3 -3 -3 -13z"/>
<path d="M1975 1537 c-65 -32 -113 -83 -130 -140 -7 -25 -11 -48 -8 -51 3 -3
-2 -21 -11 -40 -20 -42 -20 -46 0 -46 9 0 14 -6 11 -12 -2 -7 -10 -12 -16 -10
-7 1 -10 -2 -7 -7 7 -10 25 -9 44 2 7 5 12 3 12 -3 0 -6 4 -9 10 -5 5 3 17 -6
26 -20 19 -29 32 -33 30 -8 -1 23 -36 57 -58 58 -27 2 -34 14 -21 34 9 14 9
28 1 54 -32 105 143 236 262 197 31 -10 37 -16 32 -33 -4 -15 -1 -19 10 -15
18 8 43 -32 52 -85 9 -46 26 -87 37 -87 5 0 5 10 1 23 -5 12 -8 29 -7 37 1 8
-4 22 -10 30 -19 24 -25 50 -13 50 6 0 3 10 -8 21 -19 22 -19 22 3 8 15 -9 21
-20 17 -34 -3 -14 4 -30 21 -49 20 -22 23 -31 14 -42 -7 -9 -8 -14 -1 -14 7 0
7 -11 0 -34 -9 -27 -8 -42 4 -68 8 -18 21 -47 27 -65 7 -17 19 -34 27 -37 9
-4 12 -2 8 5 -4 6 0 16 7 21 11 8 10 9 -3 4 -33 -10 -18 11 15 22 l32 12 -42
-4 -41 -4 14 34 c12 29 12 41 -1 90 -8 31 -22 65 -31 76 -19 20 -6 25 16 6 8
-7 6 -3 -4 10 -20 23 -10 31 13 10 11 -11 13 -10 7 5 -3 10 -6 21 -6 23 0 2
-6 4 -13 4 -7 0 -23 14 -36 30 -12 17 -26 28 -32 24 -5 -3 -26 4 -47 16 -57
35 -144 37 -207 7z m276 -44 c13 -16 12 -17 -3 -4 -10 7 -18 15 -18 17 0 8 8
3 21 -13z m14 -42 c3 -5 2 -12 -3 -15 -5 -3 -9 1 -9 9 0 17 3 19 12 6z m40
-159 c-8 -8 -25 10 -25 26 0 13 2 13 14 -4 8 -10 13 -21 11 -22z m1 -27 c-3
-20 -20 -20 -24 -1 -2 9 3 16 11 16 9 0 14 -7 13 -15z"/>
<path d="M897 1537 c-3 -7 5 -19 16 -26 18 -11 20 -11 10 0 -16 16 -17 33 -1
23 7 -4 8 -3 4 4 -10 16 -23 15 -29 -1z"/>
<path d="M140 1523 c0 -6 8 -17 18 -24 16 -13 16 -13 2 6 -8 11 -16 22 -17 24
-2 2 -3 0 -3 -6z"/>
<path d="M950 1505 c-7 -13 -16 -22 -20 -20 -9 6 -32 -44 -25 -55 3 -5 1 -10
-5 -12 -6 -2 -12 -12 -14 -23 -2 -11 -9 -31 -15 -45 -9 -21 -10 -18 -5 20 4
25 11 54 17 65 5 11 12 33 13 50 3 28 3 29 -11 11 -8 -11 -15 -30 -15 -41 0
-12 -4 -35 -9 -51 -15 -46 -23 -167 -12 -159 7 4 9 -5 5 -24 -4 -17 -3 -56 1
-88 8 -57 8 -58 18 -25 7 22 7 40 0 55 -13 28 -2 162 16 195 7 12 9 27 6 32
-3 6 -2 10 4 10 5 0 13 10 17 22 4 13 18 40 32 61 14 20 23 40 20 42 -2 3 -11
-6 -18 -20z"/>
<path d="M1030 1521 c-8 -6 -17 -8 -21 -5 -4 2 -5 -5 -2 -16 4 -13 -2 -29 -15
-43 -31 -33 -65 -117 -48 -117 15 0 26 21 27 53 0 16 2 18 7 7 4 -10 10 -1 18
25 6 22 16 39 21 38 6 -1 15 14 21 33 5 18 9 34 9 34 -1 0 -9 -4 -17 -9z"/>
<path d="M1065 1510 c-3 -5 -1 -10 4 -10 6 0 11 5 11 10 0 6 -2 10 -4 10 -3 0
-8 -4 -11 -10z"/>
<path d="M2070 1490 c-19 -11 -31 -19 -25 -20 5 0 4 -5 -2 -11 -14 -14 -5 -54
18 -75 23 -21 25 -7 3 25 -16 23 -16 25 20 58 52 49 47 57 -14 23z"/>
<path d="M606 1481 c-37 -15 4 -24 46 -10 35 11 44 11 69 -3 26 -15 28 -15 26
1 -1 13 -12 17 -61 18 -34 1 -70 -1 -80 -6z"/>
<path d="M960 1470 c-6 -11 -8 -20 -6 -20 3 0 10 9 16 20 6 11 8 20 6 20 -3 0
-10 -9 -16 -20z"/>
<path d="M483 1458 c-48 -16 -41 -23 21 -23 52 0 54 1 36 18 -11 9 -20 17 -22
16 -2 -1 -18 -6 -35 -11z"/>
<path d="M656 1463 c-3 -3 -3 -9 -1 -13 6 -9 45 -1 45 9 0 8 -36 12 -44 4z"/>
<path d="M2079 1450 l-24 -20 35 12 c44 14 61 28 33 28 -11 0 -31 -9 -44 -20z"/>
<path d="M1170 1438 c0 -9 6 -18 14 -21 21 -8 20 -116 -1 -139 -18 -20 -38
-25 -27 -6 4 7 3 8 -4 4 -12 -7 -5 -99 10 -130 7 -13 6 -23 -5 -33 -13 -13
-18 -13 -46 1 -29 16 -43 46 -20 46 5 0 7 5 4 10 -10 16 -25 1 -25 -24 0 -25
41 -66 68 -66 14 -1 15 -2 2 -9 -8 -5 -33 -5 -55 -1 -22 4 -34 8 -27 9 7 0 10
6 6 12 -4 7 -9 7 -13 2 -3 -5 -14 -12 -24 -16 -21 -8 -19 -37 3 -53 8 -6 33
-14 56 -17 34 -6 44 -3 60 14 19 21 19 22 -5 14 -39 -12 -92 -8 -109 9 -23 22
-13 26 40 15 54 -12 100 3 104 34 4 32 14 48 23 42 6 -3 9 15 6 47 -1 29 -8
54 -13 56 -6 2 -2 12 9 23 10 10 19 27 19 37 0 9 7 26 15 36 8 11 14 36 14 55
l-2 36 -6 -42 c-9 -55 -21 -66 -21 -20 0 25 -8 45 -25 63 -17 19 -25 22 -25
12z m16 -224 c-3 -9 -6 -25 -7 -37 0 -21 -1 -21 -9 -2 -14 32 -11 55 6 55 11
0 14 -5 10 -16z"/>
<path d="M1947 1438 c-10 -5 -17 -15 -17 -22 0 -8 -7 -19 -15 -26 -8 -7 -15
-16 -15 -21 0 -10 33 6 63 30 25 20 36 4 38 -52 1 -26 5 -47 9 -47 18 0 70 23
70 31 0 5 3 8 8 7 8 -3 12 5 12 24 0 6 -10 2 -23 -10 -13 -12 -34 -22 -46 -22
-21 0 -23 3 -17 33 5 28 2 37 -22 59 -21 19 -33 23 -45 16z"/>
<path d="M483 1423 c-23 -9 -14 -25 10 -18 31 10 45 25 22 24 -11 0 -26 -3
-32 -6z"/>
<path d="M1331 1423 c-1 -6 3 -14 8 -17 5 -3 9 -24 9 -45 0 -22 5 -49 11 -59
6 -11 8 -21 6 -24 -3 -3 2 -5 10 -5 13 0 13 3 0 24 -9 13 -14 23 -12 23 2 0 1
20 -3 45 -4 24 -4 46 -1 48 3 2 1 2 -6 1 -6 -2 -14 2 -17 9 -3 9 -5 9 -5 0z"/>
<path d="M2560 1419 c0 -5 5 -7 10 -4 6 3 10 8 10 11 0 2 -4 4 -10 4 -5 0 -10
-5 -10 -11z"/>
<path d="M539 1398 c0 -13 -3 -36 -5 -51 -4 -26 -3 -27 23 -21 15 4 33 9 38
13 6 3 16 6 24 6 26 0 22 23 -7 44 -26 18 -31 19 -36 5 -4 -10 -1 -14 6 -11 7
2 22 0 33 -6 19 -10 19 -11 -5 -18 -55 -16 -63 -12 -56 26 4 22 3 35 -4 35 -5
0 -10 -10 -11 -22z"/>
<path d="M1887 1399 c-10 -11 -17 -25 -15 -30 2 -5 11 4 21 21 21 35 19 39 -6
9z"/>
<path d="M2321 1394 c0 -11 3 -14 6 -6 3 7 2 16 -1 19 -3 4 -6 -2 -5 -13z"/>
<path d="M2497 1391 c-4 -17 -3 -21 5 -13 5 5 8 16 6 23 -3 8 -7 3 -11 -10z"/>
<path d="M1001 1384 c0 -11 3 -14 6 -6 3 7 2 16 -1 19 -3 4 -6 -2 -5 -13z"/>
<path d="M2555 1390 c-4 -6 -9 -8 -13 -6 -12 7 -31 -20 -23 -33 5 -7 15 -1 29
19 13 16 20 30 18 30 -3 0 -8 -5 -11 -10z"/>
<path d="M2625 1369 c3 -20 1 -47 -4 -60 -9 -21 -10 -18 -11 21 -1 35 -3 40
-10 25 -17 -40 -11 -75 15 -87 28 -12 30 -20 15 -49 -8 -14 -5 -40 11 -101 12
-46 23 -101 24 -123 6 -99 7 -103 15 -55 5 29 2 64 -7 99 -7 30 -12 55 -10 57
2 2 14 -7 26 -20 34 -36 57 -164 42 -232 -18 -78 -23 -191 -10 -200 6 -3 7 -9
3 -13 -5 -3 -14 -15 -20 -26 -20 -36 -41 -29 -77 25 -25 37 -36 47 -40 35 -4
-8 -12 -15 -19 -15 -9 0 -9 3 0 12 7 7 8 17 1 30 -11 20 -34 24 -45 6 -5 -7
-2 -9 7 -6 8 3 20 -1 27 -8 11 -12 9 -14 -7 -14 -11 0 -23 -4 -26 -10 -3 -5
-14 -10 -24 -10 -20 0 -68 -47 -58 -57 4 -3 7 -3 7 2 0 4 10 0 23 -11 l22 -19
-18 22 c-21 24 -16 29 40 49 27 9 32 9 36 -6 4 -16 36 -34 102 -60 29 -12 30
-12 7 -21 -12 -5 -27 -21 -33 -36 -6 -16 -22 -40 -36 -55 -15 -15 -23 -31 -19
-35 7 -8 42 28 79 81 10 14 27 26 37 26 12 0 20 7 20 16 0 11 6 13 19 9 20 -6
23 8 8 33 -17 27 105 42 205 26 30 -5 38 -11 41 -33 2 -14 5 6 6 45 2 130 -72
304 -174 409 -42 44 -59 54 -108 64 -33 7 -57 18 -55 24 1 7 -2 31 -6 55 -5
25 -4 48 2 55 11 14 21 77 15 95 -3 6 -10 9 -16 5 -7 -4 -6 1 2 10 7 9 9 17 4
17 -6 0 -15 10 -22 23 -10 20 -11 18 -6 -14z m18 -69 c3 -11 1 -18 -4 -14 -5
3 -9 12 -9 20 0 20 7 17 13 -6z m107 -238 c30 -7 62 -34 56 -48 -3 -8 -2 -13
2 -11 4 3 13 -1 20 -9 7 -8 10 -14 7 -14 -3 0 7 -14 22 -31 16 -17 27 -35 26
-40 -2 -5 1 -9 6 -9 7 0 61 -128 61 -144 0 -2 -17 0 -37 3 -27 5 -38 12 -37
24 1 9 -3 14 -8 11 -5 -3 -7 -12 -4 -20 3 -8 3 -14 0 -14 -2 0 -9 10 -14 23
-7 17 -9 18 -9 5 -1 -10 -4 -18 -8 -19 -11 -1 -34 -6 -66 -14 l-29 -8 7 54 c6
47 7 139 2 199 -1 11 -6 20 -12 20 -5 0 -1 7 9 15 19 15 19 16 -6 19 -6 0 -13
8 -15 16 -3 9 -1 11 4 5 4 -5 15 -11 23 -13z m183 -324 c10 -5 15 -13 12 -19
-4 -5 -1 -8 6 -7 7 2 15 -11 19 -28 l7 -31 -43 13 c-40 12 -64 12 -159 -1
l-40 -5 0 35 c0 28 5 37 20 40 11 2 29 6 40 9 34 7 119 4 138 -6z m-58 -87
c-9 -8 -36 -10 -30 -2 2 4 11 8 20 8 8 0 13 -3 10 -6z m-45 -4 c-11 -9 -80
-17 -80 -9 0 4 19 9 42 11 23 1 40 0 38 -2z m-226 -23 c3 -8 2 -12 -4 -9 -6 3
-10 10 -10 16 0 14 7 11 14 -7z"/>
<path d="M2780 916 c0 -2 7 -7 16 -10 8 -3 12 -2 9 4 -6 10 -25 14 -25 6z"/>
<path d="M2866 887 c3 -10 9 -15 12 -12 3 3 0 11 -7 18 -10 9 -11 8 -5 -6z"/>
<path d="M2880 851 c0 -6 4 -13 10 -16 6 -3 7 1 4 9 -7 18 -14 21 -14 7z"/>
<path d="M2841 827 c-13 -21 -12 -21 5 -5 10 10 16 20 13 22 -3 3 -11 -5 -18
-17z"/>
<path d="M1143 1340 c0 -30 2 -43 4 -27 2 15 2 39 0 55 -2 15 -4 2 -4 -28z"/>
<path d="M1022 1356 c-6 -15 -12 -36 -12 -48 0 -25 7 -21 12 7 1 11 7 23 11
26 5 4 7 15 5 25 -2 14 -5 13 -16 -10z"/>
<path d="M1276 1361 c-3 -5 1 -11 9 -14 9 -4 12 -1 8 9 -6 16 -10 17 -17 5z"/>
<path d="M196 1348 c3 -5 10 -6 15 -3 13 9 11 12 -6 12 -8 0 -12 -4 -9 -9z"/>
<path d="M986 1324 c-4 -20 -5 -38 -3 -40 3 -3 8 11 11 32 4 20 5 38 3 40 -3
3 -8 -11 -11 -32z"/>
<path d="M1955 1350 c-3 -5 -1 -10 4 -10 6 0 11 5 11 10 0 6 -2 10 -4 10 -3 0
-8 -4 -11 -10z"/>
<path d="M290 1344 c0 -6 7 -19 16 -30 14 -18 14 -18 3 6 -14 31 -19 36 -19
24z"/>
<path d="M2491 1343 c0 -4 4 -17 9 -28 8 -19 9 -19 9 2 1 12 -3 25 -9 28 -5 3
-10 3 -9 -2z"/>
<path d="M810 1331 c0 -5 -3 -16 -6 -25 -3 -9 -2 -16 4 -16 5 0 12 11 14 25 3
14 1 25 -3 25 -5 0 -9 -4 -9 -9z"/>
<path d="M37 1309 c6 -23 9 -24 16 -5 3 8 0 17 -7 19 -10 4 -12 -1 -9 -14z"/>
<path d="M942 1305 c0 -16 2 -22 5 -12 2 9 2 23 0 30 -3 6 -5 -1 -5 -18z"/>
<path d="M2120 1320 c0 -5 5 -12 11 -16 6 -4 -10 -15 -37 -26 -66 -27 -77 -33
-81 -45 -2 -6 22 3 53 18 31 16 63 29 70 29 16 0 14 38 -3 44 -7 3 -13 1 -13
-4z"/>
<path d="M722 1300 c0 -14 2 -19 5 -12 2 6 2 18 0 25 -3 6 -5 1 -5 -13z"/>
<path d="M2470 1306 c0 -9 5 -16 10 -16 6 0 10 4 10 9 0 6 -4 13 -10 16 -5 3
-10 -1 -10 -9z"/>
<path d="M115 1300 c-3 -6 1 -7 9 -4 18 7 21 14 7 14 -6 0 -13 -4 -16 -10z"/>
<path d="M602 1285 c-34 -6 -65 -9 -68 -6 -3 3 0 -6 7 -21 7 -16 17 -29 23
-29 24 -3 51 3 61 13 7 6 -3 7 -27 3 -24 -5 -38 -3 -38 3 0 10 36 21 86 27 14
1 27 5 30 8 13 12 -15 13 -74 2z"/>
<path d="M1865 1280 c3 -5 11 -10 16 -10 6 0 7 5 4 10 -3 6 -11 10 -16 10 -6
0 -7 -4 -4 -10z"/>
<path d="M2515 1280 c-4 -6 -15 -8 -26 -5 -15 5 -17 3 -12 -10 3 -10 0 -21 -8
-25 -7 -5 -10 -12 -6 -16 4 -4 15 2 23 15 9 12 25 26 37 30 13 5 16 10 9 15
-6 3 -14 2 -17 -4z"/>
<path d="M2000 1270 c-13 -8 -13 -10 2 -10 9 0 20 5 23 10 8 13 -5 13 -25 0z"/>
<path d="M901 1238 c2 -28 2 -29 6 -8 3 14 10 28 17 32 7 5 5 8 -6 8 -14 0
-18 -8 -17 -32z"/>
<path d="M2125 1260 c-3 -5 -24 -15 -45 -21 -49 -15 -52 -27 -5 -26 21 1 30 4
22 9 -9 6 -8 8 4 8 9 0 24 9 34 20 10 11 13 20 7 20 -6 0 -14 -4 -17 -10z"/>
<path d="M80 1256 c0 -2 7 -6 15 -10 8 -3 15 -1 15 4 0 6 -7 10 -15 10 -8 0
-15 -2 -15 -4z"/>
<path d="M191 1244 c0 -11 3 -14 6 -6 3 7 2 16 -1 19 -3 4 -6 -2 -5 -13z"/>
<path d="M777 1225 c-6 -35 -2 -78 10 -105 4 -8 8 -28 9 -45 1 -16 2 -39 3
-50 2 -20 2 -20 11 0 7 17 9 17 9 3 1 -10 6 -18 11 -18 7 0 6 8 -2 23 -6 12
-12 29 -13 37 -1 8 -7 32 -14 53 -7 21 -11 60 -9 87 3 57 -7 67 -15 15z"/>
<path d="M1391 1240 c14 -31 19 -36 19 -24 0 6 -7 19 -16 30 -14 18 -14 18 -3
-6z"/>
<path d="M119 1233 c-13 -16 -12 -17 4 -4 9 7 17 15 17 17 0 8 -8 3 -21 -13z"/>
<path d="M1036 1235 c-3 -8 -1 -15 4 -15 6 0 10 7 10 15 0 8 -2 15 -4 15 -2 0
-6 -7 -10 -15z"/>
<path d="M801 1210 c0 -19 4 -44 9 -55 7 -16 9 -11 9 20 0 22 -4 47 -9 55 -7
11 -10 6 -9 -20z"/>
<path d="M1360 1232 c-18 -8 -25 -32 -9 -32 6 0 9 -9 6 -20 -3 -11 -2 -18 3
-15 4 3 10 21 12 40 2 19 4 35 3 34 0 0 -7 -3 -15 -7z"/>
<path d="M920 1225 c0 -3 9 -16 21 -28 l20 -22 -9 24 c-8 23 -32 42 -32 26z"/>
<path d="M2429 1223 c-11 -3 -15 -11 -11 -30 5 -25 3 -26 -29 -19 -35 7 -30
-7 7 -18 16 -5 24 1 38 26 9 18 14 25 12 16 -3 -10 0 -17 7 -15 6 1 17 -18 23
-43 12 -44 18 -46 15 -5 -2 23 -28 82 -39 88 -4 2 -14 2 -23 0z"/>
<path d="M140 1216 c0 -2 7 -7 16 -10 8 -3 12 -2 9 4 -6 10 -25 14 -25 6z"/>
<path d="M2020 1206 c0 -2 7 -9 15 -16 9 -7 15 -8 15 -2 0 5 -7 12 -15 16 -8
3 -15 4 -15 2z"/>
<path d="M125 1190 c-3 -5 -1 -10 4 -10 6 0 11 5 11 10 0 6 -2 10 -4 10 -3 0
-8 -4 -11 -10z"/>
<path d="M913 1186 c4 -10 7 -22 7 -27 0 -5 7 -9 15 -9 8 0 15 -7 15 -16 0 -9
9 -27 20 -41 25 -32 26 -16 3 37 -11 24 -23 38 -30 35 -7 -2 -13 2 -13 10 0 7
-5 17 -12 21 -8 5 -9 2 -5 -10z"/>
<path d="M1981 1190 c-1 -18 18 -40 34 -40 5 0 3 6 -6 13 -9 7 -18 19 -22 27
-5 13 -6 13 -6 0z"/>
<path d="M73 1176 c0 -8 6 -12 14 -9 7 3 10 9 7 14 -8 14 -21 11 -21 -5z"/>
<path d="M1111 1157 c-13 -21 -12 -21 5 -5 10 10 16 20 13 22 -3 3 -11 -5 -18
-17z"/>
<path d="M1411 1157 c17 -32 19 -33 19 -10 0 12 -7 23 -15 27 -13 5 -14 2 -4
-17z"/>
<path d="M901 1153 c-1 -28 8 -53 21 -53 7 0 7 4 0 13 -5 6 -12 23 -15 37 -4
22 -4 22 -6 3z"/>
<path d="M1242 1128 c-6 -14 -16 -29 -23 -34 -9 -5 -10 -2 -6 9 13 33 -8 16
-25 -21 -13 -29 -15 -48 -9 -87 8 -44 9 -46 10 -15 3 68 19 65 20 -4 0 -42 -3
-66 -10 -66 -6 0 -9 -9 -6 -20 4 -14 -1 -25 -14 -33 -10 -6 -19 -19 -19 -27 0
-28 51 36 60 76 11 45 2 142 -14 163 -8 11 -8 13 0 8 7 -4 14 0 18 8 8 23 33
18 41 -7 3 -13 8 -18 11 -12 2 5 -2 28 -10 50 l-14 39 -10 -27z"/>
<path d="M2281 1139 c-1 -9 -22 -35 -48 -58 -26 -22 -43 -41 -37 -41 5 0 25
15 44 34 34 33 35 34 41 13 5 -21 6 -21 10 4 3 14 2 34 -2 45 -6 15 -8 16 -8
3z"/>
<path d="M2355 1140 c3 -5 14 -10 23 -10 15 0 15 2 2 10 -20 13 -33 13 -25 0z"/>
<path d="M1633 1133 c-15 -5 -17 -23 -4 -23 5 0 11 7 15 15 3 8 4 15 3 14 -1
0 -8 -3 -14 -6z"/>
<path d="M2311 1133 c0 -4 4 -17 9 -28 8 -19 9 -19 9 2 1 12 -3 25 -9 28 -5 3
-10 3 -9 -2z"/>
<path d="M1575 1120 c4 -6 11 -8 16 -5 14 9 11 15 -7 15 -8 0 -12 -5 -9 -10z"/>
<path d="M1352 1100 c14 -22 24 -19 15 5 -4 8 -11 15 -17 15 -6 0 -6 -7 2 -20z"/>
<path d="M2386 1105 c-8 -8 -26 -19 -40 -25 -15 -5 -31 -20 -37 -32 -6 -13
-23 -33 -38 -45 l-28 -22 -35 29 c-34 28 -118 54 -104 32 3 -6 0 -13 -6 -16
-7 -3 1 -3 17 -1 24 5 36 0 54 -19 13 -14 28 -23 33 -20 4 3 11 -1 14 -9 5
-15 34 -19 34 -6 0 5 23 20 50 34 52 26 66 42 28 29 -20 -6 -21 -5 -9 9 8 11
22 15 36 11 13 -3 26 -1 29 4 3 6 -3 8 -16 6 -21 -4 -21 -4 -3 5 11 4 23 7 28
4 4 -2 7 1 7 6 0 6 8 11 17 11 28 0 -21 -44 -90 -81 -34 -17 -64 -33 -66 -35
-2 -2 7 -12 20 -23 13 -11 18 -20 11 -21 -14 0 -68 -50 -55 -51 4 0 -1 -4 -12
-8 -12 -5 -23 -4 -28 3 -6 7 -7 5 -4 -6 3 -9 0 -22 -8 -28 -10 -8 -14 -8 -18
2 -2 7 -2 2 0 -12 3 -13 20 -45 38 -70 34 -46 34 -65 1 -95 -20 -19 -54 -95
-45 -101 5 -3 9 2 9 10 0 9 3 16 8 16 4 0 20 28 37 61 l30 61 11 -28 c7 -16
22 -38 33 -48 16 -15 21 -31 21 -70 0 -64 8 -76 38 -60 15 7 20 14 13 19 -6 3
-9 10 -6 15 3 4 -4 6 -15 3 -11 -3 -20 0 -20 6 0 6 3 11 8 11 4 0 25 16 47 35
l40 34 -33 -9 c-46 -12 -73 7 -118 83 -20 34 -44 72 -55 85 -26 34 -24 41 16
58 22 9 37 23 41 39 6 26 8 27 59 30 17 1 42 7 57 15 21 10 37 10 69 2 23 -6
51 -7 63 -2 20 7 20 8 -7 15 -20 5 -25 11 -18 18 13 13 14 86 1 107 -5 8 -12
11 -17 7 -4 -4 -2 -17 5 -27 6 -11 9 -26 6 -34 -5 -12 -10 -13 -30 -4 -16 8
-21 15 -15 21 7 7 16 5 28 -4 16 -13 17 -12 5 3 -8 9 -12 25 -10 36 7 42 -45
68 -76 37z m32 -69 c-16 -12 -15 -15 17 -32 45 -24 40 -37 -16 -46 -24 -3 -58
-9 -75 -12 -21 -5 -35 -2 -43 8 -10 12 -1 21 56 55 69 41 92 51 61 27z m-73
-446 c-3 -5 -10 -10 -16 -10 -5 0 -9 5 -9 10 0 6 7 10 16 10 8 0 12 -4 9 -10z"/>
<path d="M841 1103 c-1 -6 -4 -20 -7 -30 -5 -17 -5 -17 6 0 6 10 9 23 6 30 -3
9 -5 9 -5 0z"/>
<path d="M880 1092 c0 -19 18 -42 32 -42 5 0 2 14 -7 30 -18 34 -25 38 -25 12z"/>
<path d="M336 1075 c-9 -14 -23 -25 -31 -25 -8 0 -15 -5 -15 -11 0 -5 5 -7 10
-4 6 3 10 0 10 -7 0 -9 3 -9 10 2 5 8 10 11 10 5 1 -5 5 0 10 13 11 26 27 29
34 5 2 -10 4 -5 3 11 -3 38 -20 43 -41 11z"/>
<path d="M1888 1073 c3 -16 7 -22 10 -15 2 6 8 9 14 6 6 -4 5 2 -1 15 -16 30
-29 26 -23 -6z"/>
<path d="M920 1084 c0 -11 38 -74 45 -74 2 0 -5 17 -17 38 -27 46 -28 48 -28
36z"/>
<path d="M1955 1080 c3 -5 1 -10 -6 -10 -9 0 -9 -3 0 -14 9 -11 9 -14 -1 -13
-47 2 -58 -4 -58 -29 0 -16 -4 -23 -12 -18 -7 4 -8 3 -4 -4 11 -17 15 -15 26
13 5 14 16 26 25 26 8 1 20 3 25 4 6 1 15 3 22 4 9 1 9 4 1 12 -6 6 -9 18 -6
25 3 8 0 14 -7 14 -6 0 -8 -4 -5 -10z"/>
<path d="M170 1069 c0 -5 5 -7 10 -4 6 3 10 8 10 11 0 2 -4 4 -10 4 -5 0 -10
-5 -10 -11z"/>
<path d="M640 1055 c-10 -12 -9 -16 3 -21 9 -3 24 -4 34 -1 14 4 13 5 -4 6
-25 1 -31 16 -10 24 7 4 8 6 1 6 -6 1 -17 -6 -24 -14z"/>
<path d="M1327 1063 c-3 -5 -5 -25 -4 -46 1 -28 5 -36 15 -32 7 3 18 5 23 5 5
0 9 5 9 11 0 6 -6 9 -14 6 -18 -7 -26 12 -15 35 9 17 -5 36 -14 21z"/>
<path d="M1376 1044 c2 -26 11 -41 18 -33 7 7 -6 59 -14 59 -4 0 -6 -12 -4
-26z"/>
<path d="M990 1049 c0 -5 -4 -7 -10 -4 -6 4 -7 -2 -1 -17 14 -36 45 -88 54
-88 4 0 7 -8 7 -17 0 -15 2 -15 9 -4 5 8 16 11 24 8 9 -3 21 1 28 9 10 12 14
12 20 2 7 -10 9 -10 9 2 0 8 9 21 20 28 11 7 20 19 20 27 0 22 -9 19 -32 -10
-27 -35 -76 -34 -112 1 -25 26 -30 36 -27 62 1 6 -1 12 -4 12 -3 0 -5 -5 -5
-11z"/>
<path d="M841 1045 c1 -19 18 -51 18 -35 0 8 -4 22 -9 30 -5 8 -9 11 -9 5z"/>
<path d="M1280 1039 c0 -5 -4 -8 -9 -5 -5 4 -7 -4 -3 -16 3 -12 7 -17 10 -10
2 7 8 10 13 6 5 -3 9 4 9 15 0 12 -4 21 -10 21 -5 0 -10 -5 -10 -11z"/>
<path d="M2030 1041 c0 -6 -7 -11 -16 -9 -23 4 -29 -18 -7 -26 9 -4 14 -4 10
0 -4 4 1 13 11 20 9 7 14 16 9 20 -4 4 -7 2 -7 -5z"/>
<path d="M2234 1038 c-5 -7 -3 -8 6 -3 10 6 12 4 6 -10 -5 -15 -4 -16 9 -5 8
7 12 16 9 21 -7 12 -21 11 -30 -3z"/>
<path d="M892 998 c0 -13 -1 -29 -3 -37 -2 -7 1 -15 8 -18 7 -3 9 3 6 17 -5
20 -4 20 43 -6 27 -15 55 -31 62 -37 7 -5 15 -8 18 -5 3 3 -16 18 -42 33 -26
16 -58 39 -70 52 l-21 23 -1 -22z"/>
<path d="M1252 995 c1 -16 -1 -48 -5 -70 -6 -36 -5 -35 7 9 9 30 11 56 6 70
-7 18 -8 17 -8 -9z"/>
<path d="M930 1006 c0 -2 8 -10 18 -17 15 -13 16 -12 3 4 -13 16 -21 21 -21
13z"/>
<path d="M2130 1000 c0 -5 5 -10 11 -10 5 0 7 5 4 10 -3 6 -8 10 -11 10 -2 0
-4 -4 -4 -10z"/>
<path d="M780 990 c-8 -5 -35 -15 -59 -21 -25 -6 -40 -14 -34 -17 6 -4 -6 -20
-28 -37 -38 -30 -47 -49 -29 -60 6 -4 7 1 3 12 -3 10 -2 15 2 10 10 -9 56 33
49 44 -3 5 0 10 5 10 6 1 16 3 21 4 6 1 18 3 28 4 12 1 13 4 5 9 -9 5 -1 12
22 21 19 7 35 17 35 22 0 11 0 11 -20 -1z m-100 -73 c0 -2 -10 -12 -22 -23
l-23 -19 19 23 c18 21 26 27 26 19z"/>
<path d="M1301 979 c-1 -28 31 -65 48 -54 6 3 11 2 11 -3 0 -19 45 -22 58 -5
17 24 16 28 -15 48 -16 10 -25 14 -21 10 4 -5 2 -15 -5 -23 -10 -13 -9 -15 6
-9 10 4 16 3 12 -2 -3 -5 1 -11 7 -14 7 -2 10 -8 6 -12 -4 -4 -17 0 -30 9 -12
9 -30 16 -39 16 -9 0 -20 13 -27 33 -9 30 -10 30 -11 6z"/>
<path d="M1720 984 l-25 -15 25 7 c14 3 29 10 35 15 15 14 -7 10 -35 -7z"/>
<path d="M1975 990 c-3 -5 -2 -18 4 -27 7 -14 9 -12 8 10 -2 30 -3 31 -12 17z"/>
<path d="M861 978 c0 -9 -4 -25 -7 -35 -5 -17 -5 -17 6 0 6 10 9 25 7 35 -4
15 -5 15 -6 0z"/>
<path d="M66 938 c3 -5 10 -6 15 -3 13 9 11 12 -6 12 -8 0 -12 -4 -9 -9z"/>
<path d="M1270 932 c0 -7 6 -15 14 -18 8 -3 12 -12 10 -19 -7 -18 15 -30 29
-15 9 10 9 11 0 6 -7 -4 -13 2 -15 14 -2 12 -7 20 -12 20 -5 -1 -13 4 -17 12
-7 10 -9 10 -9 0z"/>
<path d="M2228 933 c6 -2 18 -2 25 0 6 3 1 5 -13 5 -14 0 -19 -2 -12 -5z"/>
<path d="M1860 919 c0 -5 5 -7 10 -4 6 3 10 8 10 11 0 2 -4 4 -10 4 -5 0 -10
-5 -10 -11z"/>
<path d="M1090 910 c-9 -6 -10 -10 -3 -10 6 0 15 5 18 10 8 12 4 12 -15 0z"/>
<path d="M1430 905 c0 -9 -7 -18 -15 -21 -8 -4 -15 -14 -15 -23 0 -9 -6 -23
-12 -31 -7 -8 -2 -5 12 7 27 23 55 83 39 83 -5 0 -9 -7 -9 -15z"/>
<path d="M2210 910 c-8 -5 -12 -12 -9 -15 4 -3 12 1 19 10 14 17 11 19 -10 5z"/>
<path d="M2424 906 c-8 -21 21 -50 39 -39 6 3 6 8 0 12 -5 3 -15 15 -21 26
-10 19 -11 19 -18 1z"/>
<path d="M2515 889 c4 -24 -2 -59 -19 -107 -13 -40 -20 -72 -15 -72 5 0 2 -11
-7 -25 l-17 -26 27 13 c22 10 27 17 24 39 -3 16 -1 26 3 23 17 -10 27 162 10
179 -9 9 -10 4 -6 -24z"/>
<path d="M2304 878 c-10 -12 -14 -18 -7 -15 6 4 16 0 21 -9 7 -12 9 -8 9 15 0
17 -1 31 -2 31 -1 0 -10 -10 -21 -22z"/>
<path d="M266 877 c3 -10 9 -15 12 -12 3 3 0 11 -7 18 -10 9 -11 8 -5 -6z"/>
<path d="M1095 880 c3 -5 8 -10 11 -10 2 0 4 5 4 10 0 6 -5 10 -11 10 -5 0 -7
-4 -4 -10z"/>
<path d="M1355 880 c-3 -6 1 -7 9 -4 18 7 21 14 7 14 -6 0 -13 -4 -16 -10z"/>
<path d="M1800 870 c0 -5 5 -10 11 -10 5 0 7 5 4 10 -3 6 -8 10 -11 10 -2 0
-4 -4 -4 -10z"/>
<path d="M1560 853 c0 -15 2 -16 10 -3 8 13 10 12 10 -2 0 -11 -8 -18 -19 -18
-17 0 -19 -6 -16 -49 4 -45 2 -52 -23 -71 -15 -12 -22 -19 -15 -15 7 3 17 -5
24 -17 7 -12 18 -29 26 -36 11 -11 13 -11 13 3 0 9 7 23 15 32 17 17 14 40 -4
36 -6 -2 -12 0 -12 5 -6 31 -5 51 1 47 4 -3 13 2 20 10 7 8 16 13 20 10 5 -3
6 4 3 15 -3 11 -9 20 -14 20 -5 0 -9 11 -9 25 0 16 -6 25 -15 25 -8 0 -15 -8
-15 -17z m30 -54 c0 -5 -7 -9 -15 -9 -15 0 -20 12 -9 23 8 8 24 -1 24 -14z
m-20 -104 c0 -8 -7 -15 -15 -15 -8 0 -15 7 -15 15 0 8 7 15 15 15 8 0 15 -7
15 -15z"/>
<path d="M2681 854 c0 -11 3 -14 6 -6 3 7 2 16 -1 19 -3 4 -6 -2 -5 -13z"/>
<path d="M780 856 c0 -2 8 -10 18 -17 15 -13 16 -12 3 4 -13 16 -21 21 -21 13z"/>
<path d="M1110 846 c0 -17 24 -38 33 -29 12 11 7 23 -9 23 -8 0 -12 5 -9 10 3
6 1 10 -4 10 -6 0 -11 -6 -11 -14z"/>
<path d="M2036 847 c3 -10 9 -15 12 -12 3 3 0 11 -7 18 -10 9 -11 8 -5 -6z"/>
<path d="M600 835 c0 -8 4 -15 8 -15 5 0 9 7 9 15 0 8 -4 15 -9 15 -4 0 -8 -7
-8 -15z"/>
<path d="M724 830 c0 -13 4 -16 10 -10 7 7 7 13 0 20 -6 6 -10 3 -10 -10z"/>
<path d="M2301 840 c1 -41 33 -64 42 -29 4 16 3 18 -9 8 -11 -9 -16 -7 -23 12
-5 13 -10 17 -10 9z"/>
<path d="M445 829 c-4 -6 -5 -12 -2 -15 2 -3 7 2 10 11 7 17 1 20 -8 4z"/>
<path d="M1491 824 c0 -11 3 -14 6 -6 3 7 2 16 -1 19 -3 4 -6 -2 -5 -13z"/>
<path d="M1976 832 c-3 -5 1 -9 9 -9 8 0 12 4 9 9 -3 4 -7 8 -9 8 -2 0 -6 -4
-9 -8z"/>
<path d="M2360 833 c0 -6 8 -17 18 -24 16 -13 16 -13 2 6 -8 11 -16 22 -17 24
-2 2 -3 0 -3 -6z"/>
<path d="M633 818 c-17 -22 -26 -45 -10 -26 8 10 16 16 19 13 2 -3 5 2 5 10 0
18 -2 18 -14 3z"/>
<path d="M1880 819 c0 -5 5 -7 10 -4 6 3 10 8 10 11 0 2 -4 4 -10 4 -5 0 -10
-5 -10 -11z"/>
<path d="M690 809 c0 -5 5 -7 10 -4 6 3 10 8 10 11 0 2 -4 4 -10 4 -5 0 -10
-5 -10 -11z"/>
<path d="M826 801 c-10 -11 -24 -17 -32 -14 -8 3 -14 1 -14 -5 0 -6 6 -9 13
-8 18 2 62 35 56 41 -3 3 -14 -4 -23 -14z"/>
<path d="M2470 805 c0 -8 2 -15 4 -15 2 0 6 7 10 15 3 8 1 15 -4 15 -6 0 -10
-7 -10 -15z"/>
<path d="M1740 795 c-8 -9 -8 -15 -2 -15 12 0 26 19 19 26 -2 2 -10 -2 -17
-11z"/>
<path d="M2256 803 c-3 -4 4 -17 15 -29 12 -13 34 -47 48 -75 14 -29 32 -54
40 -57 8 -3 2 12 -13 34 -14 21 -26 43 -26 49 -1 16 -56 85 -64 78z"/>
<path d="M655 790 c-4 -6 -3 -10 2 -9 19 3 47 -3 35 -8 -10 -4 -10 -10 3 -30
9 -13 14 -31 11 -39 -3 -8 -2 -14 2 -14 5 0 19 -36 31 -80 13 -44 26 -79 28
-76 6 6 -37 165 -54 199 -8 15 -11 32 -8 37 3 5 -3 14 -14 19 -24 14 -28 14
-36 1z"/>
<path d="M740 790 c0 -6 7 -10 15 -10 8 0 15 2 15 4 0 2 -7 6 -15 10 -8 3 -15
1 -15 -4z"/>
<path d="M1420 779 c0 -5 5 -7 10 -4 6 3 10 8 10 11 0 2 -4 4 -10 4 -5 0 -10
-5 -10 -11z"/>
<path d="M1818 783 c7 -3 16 -2 19 1 4 3 -2 6 -13 5 -11 0 -14 -3 -6 -6z"/>
<path d="M2090 775 c-9 -10 -9 -15 -1 -15 6 0 11 5 11 11 0 5 5 7 12 3 7 -4 8
-3 4 4 -9 15 -11 15 -26 -3z"/>
<path d="M2157 728 c-8 -35 -18 -82 -22 -105 -4 -24 -11 -45 -16 -49 -5 -3 -9
-47 -9 -97 -1 -51 -7 -128 -15 -172 -15 -80 -19 -132 -11 -124 3 3 8 20 11 39
3 19 10 51 15 70 6 19 10 56 10 83 0 26 5 47 11 47 5 0 7 4 4 10 -3 5 10 26
28 47 l34 37 54 -26 c82 -40 95 -42 116 -19 20 22 38 17 50 -16 8 -21 50 -73
135 -169 25 -28 49 -60 52 -71 8 -23 80 -72 179 -120 55 -27 81 -46 90 -65 6
-16 18 -28 24 -28 15 0 17 26 3 35 -25 15 -6 23 28 11 20 -7 43 -11 50 -9 9 4
12 63 12 249 0 208 -2 245 -15 250 -8 4 -13 9 -11 13 7 11 -223 -8 -247 -20
-34 -18 -57 -41 -51 -51 3 -5 0 -16 -8 -25 -11 -14 -11 -16 2 -11 8 2 17 15
20 29 6 23 47 52 61 43 10 -6 -18 -59 -47 -91 -26 -28 -25 -27 -29 -60 -3 -31
8 -21 30 26 15 35 20 39 33 28 10 -7 13 -8 9 -1 -4 7 0 30 8 53 14 41 15 44
15 59 0 4 5 0 10 -8 5 -8 10 -10 10 -4 0 7 18 14 40 16 22 2 40 0 40 -5 0 -4
5 -5 11 -2 17 11 59 13 59 3 0 -6 7 -8 15 -4 8 3 19 -3 25 -14 14 -27 13 -60
-2 -55 -27 11 -148 21 -148 13 0 -4 17 -8 38 -8 51 0 112 -18 118 -35 12 -29
-2 -36 -28 -16 -39 31 -47 25 -10 -6 17 -16 34 -41 37 -58 6 -29 5 -29 -15 8
-26 46 -31 47 -19 2 10 -35 13 -65 24 -218 l6 -77 -56 4 c-34 3 -80 16 -114
33 -76 38 -177 112 -192 143 -7 14 -33 45 -57 69 -23 24 -41 45 -39 47 2 2 25
-7 50 -22 26 -14 47 -21 47 -15 0 6 -7 11 -15 11 -8 0 -15 5 -15 10 0 6 -6 10
-14 10 -26 0 -71 30 -108 72 -42 48 -48 64 -18 48 11 -6 26 -8 32 -4 8 5 9 2
5 -9 -7 -18 8 -24 17 -8 8 13 -12 26 -67 43 -45 15 -48 14 -58 -3 -14 -26 -52
-24 -87 6 -17 14 -41 25 -54 25 -42 0 -41 13 4 37 25 14 33 21 18 17 -35 -9
-70 -32 -70 -47 0 -6 -14 -27 -30 -46 l-30 -33 5 38 c6 51 10 75 28 159 21 98
29 145 24 145 -3 0 -11 -28 -20 -62z"/>
<path d="M2316 781 c-4 -6 -3 -11 2 -11 5 0 13 -10 19 -22 5 -12 12 -17 15
-12 4 5 -2 20 -11 33 -12 16 -21 20 -25 12z"/>
<path d="M632 769 c3 -8 17 -51 33 -97 15 -46 29 -81 32 -78 3 3 0 19 -7 35
-7 17 -10 38 -6 46 4 11 2 14 -6 9 -7 -5 -9 0 -6 14 4 14 2 20 -5 15 -6 -4 -8
2 -5 15 4 12 2 20 -3 16 -5 -3 -9 2 -9 10 0 8 -5 18 -12 22 -7 5 -9 2 -6 -7z"/>
<path d="M1510 770 c0 -5 5 -10 10 -10 6 0 10 5 10 10 0 6 -4 10 -10 10 -5 0
-10 -4 -10 -10z"/>
<path d="M2446 772 c-3 -5 1 -9 9 -9 8 0 12 4 9 9 -3 4 -7 8 -9 8 -2 0 -6 -4
-9 -8z"/>
<path d="M267 763 c-10 -9 -9 -23 1 -23 5 0 9 7 9 15 0 17 -1 18 -10 8z"/>
<path d="M547 757 c-3 -8 1 -14 9 -14 16 0 19 13 5 21 -5 3 -11 0 -14 -7z"/>
<path d="M743 741 c15 -19 28 -46 28 -64 l2 -32 7 35 7 35 3 -40 c1 -22 4 -32
7 -22 4 14 8 16 19 6 8 -6 14 -8 14 -5 0 14 -54 77 -84 99 l-31 22 28 -34z"/>
<path d="M141 734 c0 -11 3 -14 6 -6 3 7 2 16 -1 19 -3 4 -6 -2 -5 -13z"/>
<path d="M862 723 c-5 -15 -13 -36 -17 -45 -4 -10 -3 -18 2 -18 11 0 37 79 30
86 -3 3 -9 -8 -15 -23z"/>
<path d="M1896 741 c-4 -5 3 -7 14 -4 23 6 26 13 6 13 -8 0 -17 -4 -20 -9z"/>
<path d="M2420 745 c0 -5 5 -17 10 -25 5 -8 10 -10 10 -5 0 6 -5 17 -10 25 -5
8 -10 11 -10 5z"/>
<path d="M1085 711 c8 -17 19 -33 25 -36 6 -4 8 -11 4 -16 -4 -6 -14 -3 -25 7
-18 16 -19 16 -19 -12 0 -42 -17 -54 -72 -54 -41 0 -48 -3 -48 -19 0 -13 -22
-34 -62 -62 -35 -23 -52 -39 -38 -35 14 4 36 8 50 9 30 4 73 26 49 27 -8 0
-20 -5 -26 -11 -6 -6 -17 -9 -24 -7 -7 2 3 14 24 27 20 12 37 29 37 37 0 8 5
14 11 14 5 0 8 -4 4 -10 -3 -5 6 -5 24 1 17 6 36 9 43 6 7 -2 20 6 28 19 15
22 18 22 45 8 19 -10 32 -11 39 -4 7 7 5 10 -6 10 -23 0 -44 28 -30 42 8 8 5
21 -11 49 -26 45 -45 53 -22 10z"/>
<path d="M1660 726 c0 -2 7 -9 15 -16 12 -10 15 -10 15 4 0 9 -7 16 -15 16 -8
0 -15 -2 -15 -4z"/>
<path d="M2027 719 c7 -7 15 -10 18 -7 3 3 -2 9 -12 12 -14 6 -15 5 -6 -5z"/>
<path d="M2066 715 c4 -8 11 -15 16 -15 6 0 5 6 -2 15 -7 8 -14 15 -16 15 -2
0 -1 -7 2 -15z"/>
<path d="M475 710 c-3 -6 1 -7 9 -4 18 7 21 14 7 14 -6 0 -13 -4 -16 -10z"/>
<path d="M1810 711 c0 -6 4 -13 10 -16 6 -3 7 1 4 9 -7 18 -14 21 -14 7z"/>
<path d="M2372 701 c-11 -7 -11 -9 0 -14 9 -3 15 1 15 9 0 8 -1 14 -1 14 -1 0
-7 -4 -14 -9z"/>
<path d="M2405 700 c-3 -5 -1 -10 4 -10 6 0 11 5 11 10 0 6 -2 10 -4 10 -3 0
-8 -4 -11 -10z"/>
<path d="M510 655 c-32 -58 -22 -66 12 -10 15 24 24 46 20 49 -5 3 -19 -15
-32 -39z"/>
<path d="M1620 695 c0 -5 5 -17 10 -25 5 -8 10 -10 10 -5 0 6 -5 17 -10 25 -5
8 -10 11 -10 5z"/>
<path d="M201 664 c0 -16 4 -38 9 -49 6 -13 7 -5 3 25 -7 53 -13 66 -12 24z"/>
<path d="M461 674 c0 -11 3 -14 6 -6 3 7 2 16 -1 19 -3 4 -6 -2 -5 -13z"/>
<path d="M240 640 c0 -22 3 -40 8 -40 4 0 6 18 4 40 -2 22 -6 40 -8 40 -2 0
-4 -18 -4 -40z"/>
<path d="M1705 670 c3 -5 8 -10 11 -10 2 0 4 5 4 10 0 6 -5 10 -11 10 -5 0 -7
-4 -4 -10z"/>
<path d="M2433 663 c4 -3 1 -13 -6 -22 -11 -14 -10 -14 5 -2 16 12 16 31 1 31
-4 0 -3 -3 0 -7z"/>
<path d="M832 625 c-7 -15 -11 -30 -8 -32 7 -7 28 36 24 49 -2 6 -9 -2 -16
-17z"/>
<path d="M1390 640 c0 -6 7 -10 15 -10 8 0 15 2 15 4 0 2 -7 6 -15 10 -8 3
-15 1 -15 -4z"/>
<path d="M1501 634 c0 -11 3 -14 6 -6 3 7 2 16 -1 19 -3 4 -6 -2 -5 -13z"/>
<path d="M1962 630 c0 -14 2 -19 5 -12 2 6 2 18 0 25 -3 6 -5 1 -5 -13z"/>
<path d="M1610 636 c0 -2 7 -7 16 -10 8 -3 12 -2 9 4 -6 10 -25 14 -25 6z"/>
<path d="M2060 630 c0 -5 5 -10 11 -10 5 0 7 5 4 10 -3 6 -8 10 -11 10 -2 0
-4 -4 -4 -10z"/>
<path d="M610 620 c0 -5 5 -10 11 -10 5 0 7 5 4 10 -3 6 -8 10 -11 10 -2 0 -4
-4 -4 -10z"/>
<path d="M773 615 c-3 -9 -3 -18 -1 -21 3 -3 8 4 11 16 6 23 -1 27 -10 5z"/>
<path d="M2010 626 c0 -2 7 -6 15 -10 8 -3 15 -1 15 4 0 6 -7 10 -15 10 -8 0
-15 -2 -15 -4z"/>
<path d="M2508 602 c5 -15 4 -15 -14 -2 -12 9 -11 5 5 -13 14 -15 27 -27 30
-27 3 0 0 5 -6 11 -14 14 -5 41 11 32 6 -3 7 -2 3 2 -15 17 -36 14 -29 -3z"/>
<path d="M2215 600 c-3 -5 1 -10 10 -10 9 0 13 5 10 10 -3 6 -8 10 -10 10 -2
0 -7 -4 -10 -10z"/>
<path d="M1960 590 c0 -5 5 -10 11 -10 5 0 7 5 4 10 -3 6 -8 10 -11 10 -2 0
-4 -4 -4 -10z"/>
<path d="M2845 590 c-3 -6 1 -7 9 -4 18 7 21 14 7 14 -6 0 -13 -4 -16 -10z"/>
<path d="M222 575 c0 -11 3 -29 8 -40 11 -25 11 1 0 35 -6 20 -8 21 -8 5z"/>
<path d="M250 576 c0 -8 5 -18 10 -21 6 -3 10 1 10 9 0 8 -4 18 -10 21 -5 3
-10 -1 -10 -9z"/>
<path d="M479 588 c-5 -17 -4 -48 3 -48 4 0 8 3 9 8 0 4 2 15 4 25 2 9 -1 17
-6 17 -5 0 -9 -1 -10 -2z"/>
<path d="M699 566 c7 -8 11 -22 9 -32 -2 -9 2 -19 9 -21 9 -3 10 4 2 29 -5 18
-9 34 -9 35 0 2 -5 3 -11 3 -8 0 -8 -4 0 -14z"/>
<path d="M2054 565 c-10 -26 1 -38 16 -19 12 15 13 16 1 9 -11 -6 -13 -4 -8 8
3 10 4 17 1 17 -2 0 -7 -7 -10 -15z"/>
<path d="M2402 555 c-31 -22 -33 -34 -4 -29 6 1 17 2 23 3 5 0 7 6 4 11 -3 6
-2 10 3 10 6 0 12 7 16 15 7 20 -3 18 -42 -10z"/>
<path d="M855 535 c-22 -19 -35 -35 -29 -35 6 0 28 16 50 35 21 19 35 34 29
34 -5 0 -28 -15 -50 -34z"/>
<path d="M2569 558 c14 -19 2 -25 -15 -8 -6 6 -10 2 -11 -12 -2 -16 0 -19 6
-9 7 10 10 10 16 1 14 -23 -18 -29 -45 -8 -23 16 -31 18 -49 9 -17 -9 -21 -9
-19 1 2 7 8 16 13 20 6 5 6 8 -1 8 -7 0 -18 -10 -27 -23 -15 -23 -14 -23 21
-25 20 -2 43 -8 51 -15 12 -9 13 -9 7 1 -4 6 -2 12 3 12 17 0 13 -18 -6 -29
-10 -5 -15 -13 -11 -16 4 -4 19 2 34 14 29 23 49 28 38 9 -4 -7 -3 -8 5 -4 6
4 9 11 6 16 -3 5 7 19 22 32 16 13 26 22 24 21 -2 -1 -13 2 -24 8 -14 8 -18 8
-13 0 10 -15 -7 -14 -24 2 -12 10 -12 9 -1 -5z m36 -18 c-3 -5 -12 -10 -18
-10 -7 0 -6 4 3 10 19 12 23 12 15 0z m-100 -20 c3 -6 -1 -7 -9 -4 -18 7 -21
14 -7 14 6 0 13 -4 16 -10z"/>
<path d="M633 553 c-16 -6 -17 -43 -2 -43 5 0 7 5 4 10 -4 6 -1 17 5 25 13 16
12 16 -7 8z"/>
<path d="M150 521 c4 -16 6 -32 2 -35 -3 -3 0 -6 7 -6 8 0 11 6 7 16 -3 9 -6
24 -6 35 0 10 -4 19 -9 19 -6 0 -6 -12 -1 -29z"/>
<path d="M585 540 c-3 -6 1 -7 9 -4 18 7 21 14 7 14 -6 0 -13 -4 -16 -10z"/>
<path d="M978 544 c-21 -20 15 -42 38 -23 10 8 14 8 14 0 0 -6 4 -11 10 -11 5
0 7 7 4 15 -7 17 -34 21 -34 5 0 -16 -18 -11 -22 6 -2 9 -6 12 -10 8z"/>
<path d="M1106 542 c-2 -4 -1 -14 4 -22 7 -11 9 -9 7 8 -1 24 -3 26 -11 14z"/>
<path d="M537 529 c7 -7 15 -10 18 -7 3 3 -2 9 -12 12 -14 6 -15 5 -6 -5z"/>
<path d="M1960 510 c0 -6 7 -10 15 -10 8 0 15 2 15 4 0 2 -7 6 -15 10 -8 3
-15 1 -15 -4z"/>
<path d="M2049 509 c-6 -90 -8 -110 -14 -118 -4 -7 1 -8 12 -4 15 5 16 3 6 -8
-17 -17 -18 -48 -2 -32 11 11 14 161 4 172 -3 2 -5 -2 -6 -10z"/>
<path d="M771 494 c0 -11 3 -14 6 -6 3 7 2 16 -1 19 -3 4 -6 -2 -5 -13z"/>
<path d="M1190 499 c0 -5 -5 -7 -12 -3 -7 4 -8 3 -4 -4 4 -6 13 -9 21 -6 8 4
12 10 9 15 -7 12 -14 11 -14 -2z"/>
<path d="M1560 500 c-23 -7 -23 -8 -3 -9 12 -1 25 4 28 9 3 6 5 10 3 9 -2 -1
-14 -5 -28 -9z"/>
<path d="M1870 500 c-13 -8 -12 -10 3 -10 9 0 17 5 17 10 0 12 -1 12 -20 0z"/>
<path d="M1120 496 c0 -2 7 -7 16 -10 8 -3 12 -2 9 4 -6 10 -25 14 -25 6z"/>
<path d="M1760 492 c0 -5 7 -9 15 -9 8 0 12 4 9 9 -3 4 -9 8 -15 8 -5 0 -9 -4
-9 -8z"/>
<path d="M1050 480 c-8 -5 -12 -12 -9 -15 4 -3 12 1 19 10 14 17 11 19 -10 5z"/>
<path d="M1672 477 c10 -8 16 -16 14 -18 -2 -2 10 -5 27 -6 18 0 25 1 17 4 -8
3 -28 12 -45 20 -25 12 -27 12 -13 0z"/>
<path d="M1900 462 c-32 -15 -72 -26 -95 -25 -22 0 -33 -2 -25 -5 8 -3 17 -8
20 -12 3 -4 39 6 80 23 80 32 86 35 79 41 -2 2 -29 -8 -59 -22z"/>
<path d="M751 464 c0 -11 3 -14 6 -6 3 7 2 16 -1 19 -3 4 -6 -2 -5 -13z"/>
<path d="M2781 455 c6 -18 8 -55 4 -94 -6 -53 -5 -61 7 -51 7 7 12 30 11 54
-1 22 -2 50 -2 62 -1 11 -8 29 -16 40 -14 18 -14 17 -4 -11z"/>
<path d="M167 449 c4 -13 8 -18 11 -10 2 7 -1 18 -6 23 -8 8 -9 4 -5 -13z"/>
<path d="M1020 464 c0 -5 -12 -11 -27 -12 -14 -1 -29 -4 -32 -7 -3 -3 10 -4
28 -3 32 2 49 14 37 25 -3 4 -6 2 -6 -3z"/>
<path d="M222 420 c6 -23 13 -39 15 -36 7 7 -8 76 -17 76 -4 0 -3 -18 2 -40z"/>
<path d="M500 440 c-13 -9 -13 -10 0 -10 8 0 22 5 30 10 13 9 13 10 0 10 -8 0
-22 -5 -30 -10z"/>
<path d="M630 443 c0 -5 9 -18 20 -28 11 -10 20 -16 20 -13 0 3 -9 15 -20 28
-11 13 -20 19 -20 13z"/>
<path d="M2498 436 c-16 -12 -15 -15 13 -35 30 -22 30 -22 19 -2 -6 12 -16 21
-22 21 -7 0 -6 5 2 15 15 18 11 19 -12 1z"/>
<path d="M2859 423 c6 -12 11 -37 11 -57 0 -19 4 -37 8 -40 13 -8 -3 93 -17
107 -11 10 -11 8 -2 -10z"/>
<path d="M1146 423 c-3 -4 -12 -8 -19 -10 -81 -18 -108 -26 -103 -30 2 -3 24
-1 48 3 24 4 46 7 49 6 4 -1 15 8 24 18 17 18 17 29 1 13z"/>
<path d="M2827 410 c3 -11 7 -20 9 -20 2 0 4 9 4 20 0 11 -4 20 -9 20 -5 0 -7
-9 -4 -20z"/>
<path d="M1001 403 c0 -11 3 -13 6 -5 2 6 10 9 15 6 7 -4 8 -2 4 4 -11 18 -26
14 -25 -5z"/>
<path d="M2556 412 c-14 -13 -4 -22 25 -22 16 0 28 4 25 9 -7 11 -43 21 -50
13z"/>
<path d="M2897 400 c4 -14 10 -43 14 -65 l6 -40 1 35 c1 19 -5 49 -13 65 -12
24 -13 25 -8 5z"/>
<path d="M658 383 c7 -3 16 -2 19 1 4 3 -2 6 -13 5 -11 0 -14 -3 -6 -6z"/>
<path d="M91 363 c7 -12 15 -20 18 -17 3 2 -3 12 -13 22 -17 16 -18 16 -5 -5z"/>
<path d="M1610 369 c0 -5 5 -7 10 -4 6 3 10 8 10 11 0 2 -4 4 -10 4 -5 0 -10
-5 -10 -11z"/>
<path d="M240 355 c0 -8 2 -15 4 -15 2 0 6 7 10 15 3 8 1 15 -4 15 -6 0 -10
-7 -10 -15z"/>
<path d="M1530 350 c-9 -6 -10 -10 -3 -10 6 0 15 5 18 10 8 12 4 12 -15 0z"/>
<path d="M1670 351 c0 -6 4 -13 10 -16 6 -3 7 1 4 9 -7 18 -14 21 -14 7z"/>
<path d="M1936 348 c3 -5 10 -6 15 -3 13 9 11 12 -6 12 -8 0 -12 -4 -9 -9z"/>
<path d="M2590 350 c0 -5 5 -10 11 -10 5 0 7 5 4 10 -3 6 -8 10 -11 10 -2 0
-4 -4 -4 -10z"/>
<path d="M2712 335 c-14 -30 -12 -31 10 -5 10 10 14 22 9 24 -4 3 -13 -6 -19
-19z"/>
<path d="M1600 321 c0 -6 4 -13 10 -16 6 -3 7 1 4 9 -7 18 -14 21 -14 7z"/>
<path d="M1626 318 c3 -4 11 -5 19 -1 21 7 19 12 -4 10 -11 0 -18 -5 -15 -9z"/>
<path d="M1960 319 c0 -5 5 -7 10 -4 6 3 10 8 10 11 0 2 -4 4 -10 4 -5 0 -10
-5 -10 -11z"/>
<path d="M2047 295 c7 -49 13 -58 13 -19 0 16 -5 36 -10 44 -6 10 -7 2 -3 -25z"/>
<path d="M2624 313 c10 -11 37 -12 30 -2 -3 5 -12 9 -21 9 -9 0 -13 -3 -9 -7z"/>
<path d="M1860 299 c0 -5 5 -7 10 -4 6 3 10 8 10 11 0 2 -4 4 -10 4 -5 0 -10
-5 -10 -11z"/>
<path d="M2676 293 c-6 -14 -5 -15 5 -6 7 7 10 15 7 18 -3 3 -9 -2 -12 -12z"/>
<path d="M2865 298 c-4 -10 -4 -26 0 -35 8 -17 8 -17 12 0 3 9 3 25 0 35 -4
16 -4 16 -12 0z"/>
<path d="M1597 284 c-4 -4 -7 -17 -7 -28 1 -19 1 -20 11 -3 11 19 8 43 -4 31z"/>
<path d="M2780 275 c0 -8 5 -15 10 -15 6 0 10 7 10 15 0 8 -4 15 -10 15 -5 0
-10 -7 -10 -15z"/>
<path d="M2909 280 c-3 -20 -4 -25 -12 -37 -5 -9 -3 -11 6 -7 8 3 15 16 15 30
0 23 -7 34 -9 14z"/>
<path d="M1756 263 c-6 -14 -5 -15 5 -6 7 7 10 15 7 18 -3 3 -9 -2 -12 -12z"/>
<path d="M226 261 c-4 -7 -5 -15 -2 -18 9 -9 19 4 14 18 -4 11 -6 11 -12 0z"/>
<path d="M1545 260 c-3 -5 -1 -10 4 -10 6 0 11 5 11 10 0 6 -2 10 -4 10 -3 0
-8 -4 -11 -10z"/>
<path d="M793 214 c0 -8 2 -12 5 -9 2 2 27 -5 56 -15 28 -11 58 -20 66 -19 8
0 -10 9 -40 20 -30 11 -62 24 -71 29 -11 5 -16 4 -16 -6z"/>
<path d="M2030 219 c0 -5 5 -7 10 -4 6 3 10 8 10 11 0 2 -4 4 -10 4 -5 0 -10
-5 -10 -11z"/>
<path d="M2859 228 c-6 -21 -5 -38 2 -38 5 0 9 9 9 20 0 16 -7 28 -11 18z"/>
<path d="M251 191 c-24 -33 -28 -56 -5 -26 20 26 36 55 30 55 -3 0 -14 -13
-25 -29z"/>
<path d="M1500 215 c0 -5 5 -17 10 -25 5 -8 10 -10 10 -5 0 6 -5 17 -10 25 -5
8 -10 11 -10 5z"/>
<path d="M1600 211 c0 -5 5 -13 10 -16 6 -3 10 -2 10 4 0 5 -4 13 -10 16 -5 3
-10 2 -10 -4z"/>
<path d="M1577 189 c4 -13 8 -18 11 -10 2 7 -1 18 -6 23 -8 8 -9 4 -5 -13z"/>
<path d="M1655 200 c3 -5 8 -10 11 -10 2 0 4 5 4 10 0 6 -5 10 -11 10 -5 0 -7
-4 -4 -10z"/>
<path d="M1715 201 c-3 -6 -11 -8 -17 -5 -7 4 -8 2 -4 -4 4 -6 13 -9 21 -5 17
6 20 -8 5 -23 -7 -7 -6 -11 4 -11 9 0 13 9 11 24 -3 29 -11 38 -20 24z"/>
<path d="M2037 180 c3 -11 7 -20 9 -20 2 0 4 9 4 20 0 11 -4 20 -9 20 -5 0 -7
-9 -4 -20z"/>
<path d="M663 170 c-31 -13 -29 -17 8 -18 17 0 38 -7 46 -14 14 -11 15 -11 11
2 -2 8 -14 16 -26 18 -12 2 -20 8 -17 13 7 11 7 11 -22 -1z"/>
<path d="M2765 170 c3 -5 8 -10 11 -10 2 0 4 5 4 10 0 6 -5 10 -11 10 -5 0 -7
-4 -4 -10z"/>
<path d="M2855 170 c-3 -6 1 -7 9 -4 18 7 21 14 7 14 -6 0 -13 -4 -16 -10z"/>
<path d="M620 130 c20 -13 33 -13 25 0 -3 6 -14 10 -23 10 -15 0 -15 -2 -2
-10z"/>
<path d="M1627 118 c9 -10 21 -18 27 -18 6 0 4 5 -4 10 -13 9 -13 11 -1 19 10
7 7 9 -12 8 -24 -2 -24 -3 -10 -19z"/>
<path d="M2063 125 c-3 -9 -3 -18 -1 -21 3 -3 8 4 11 16 6 23 -1 27 -10 5z"/>
<path d="M664 105 c-20 -15 -11 -18 20 -6 11 4 15 10 9 14 -5 3 -19 0 -29 -8z"/>
<path d="M1546 92 c-2 -4 4 -8 14 -8 10 0 16 4 14 8 -3 4 -9 8 -14 8 -5 0 -11
-4 -14 -8z"/>
<path d="M1876 83 c-6 -14 -5 -15 5 -6 7 7 10 15 7 18 -3 3 -9 -2 -12 -12z"/>
<path d="M1767 79 c7 -7 15 -10 18 -7 3 3 -2 9 -12 12 -14 6 -15 5 -6 -5z"/>
<path d="M212 59 c-6 -15 -16 -29 -23 -31 -9 -3 -10 -6 -2 -11 13 -8 46 39 40
56 -3 7 -9 0 -15 -14z"/>
<path d="M480 70 c0 -5 5 -10 11 -10 5 0 7 5 4 10 -3 6 -8 10 -11 10 -2 0 -4
-4 -4 -10z"/>
<path d="M714 68 c-5 -8 -2 -9 9 -5 24 9 32 -12 11 -29 -18 -14 -18 -14 3 -5
14 7 24 8 28 1 3 -5 11 -10 17 -10 7 0 -1 14 -17 30 -31 33 -40 36 -51 18z"/>
<path d="M1471 64 c0 -11 3 -14 6 -6 3 7 2 16 -1 19 -3 4 -6 -2 -5 -13z"/>
<path d="M1075 50 c-3 -5 1 -10 10 -10 9 0 13 5 10 10 -3 6 -8 10 -10 10 -2 0
-7 -4 -10 -10z"/>
<path d="M1110 50 c0 -5 5 -10 11 -10 5 0 7 5 4 10 -3 6 -8 10 -11 10 -2 0 -4
-4 -4 -10z"/>
<path d="M2050 30 c0 -17 4 -30 8 -30 5 0 7 13 4 30 -6 39 -12 39 -12 0z"/>
<path d="M675 20 c-13 -6 -15 -9 -5 -9 8 0 22 4 30 9 18 12 2 12 -25 0z"/>
<path d="M965 10 c-3 -5 1 -10 10 -10 9 0 13 5 10 10 -3 6 -8 10 -10 10 -2 0
-7 -4 -10 -10z"/>
<path d="M793 3 c9 -2 23 -2 30 0 6 3 -1 5 -18 5 -16 0 -22 -2 -12 -5z"/>
</g>
</svg>
